<svg width="60" height="60" viewBox="0 0 60 60" fill="none" xmlns="http://www.w3.org/2000/svg">
<circle cx="25.0884" cy="33.584" r="1.75" fill="white" stroke="black" stroke-width="1.876"/>
<circle cx="32.7681" cy="32.4321" r="1.75" fill="white" stroke="black" stroke-width="1.876"/>
<line x1="26.0264" y1="32.218" x2="26.0264" y2="26.502" stroke="black" stroke-width="3.5" stroke-linecap="round"/>
<line x1="33.7061" y1="31.0659" x2="33.7061" y2="25.3499" stroke="black" stroke-width="3.5" stroke-linecap="round"/>
<line x1="33.5934" y1="25.5845" x2="28.6089" y2="26.3122" stroke="black" stroke-width="3.5" stroke-linecap="round"/>
<path d="M10 10.1504H24.9375L29.9375 15.1504H50C51.3349 15.1504 52.4735 15.6239 53.4248 16.5752C54.3761 17.5265 54.8496 18.6651 54.8496 20V45C54.8496 46.3349 54.3761 47.4735 53.4248 48.4248C52.4735 49.3761 51.3349 49.8496 50 49.8496H10C8.6651 49.8496 7.52646 49.3761 6.5752 48.4248C5.62394 47.4735 5.15039 46.3349 5.15039 45V15C5.15039 13.6651 5.62393 12.5265 6.5752 11.5752C7.52646 10.6239 8.6651 10.1504 10 10.1504ZM9.84961 45.1504H50.1504V19.8496H28L23 14.8496H9.84961V45.1504Z" fill="#1D1B20" stroke="black" stroke-width="0.3"/>
</svg>
