<svg width="60" height="60" viewBox="0 0 60 60" fill="none" xmlns="http://www.w3.org/2000/svg">
<path d="M10 50C8.625 50 7.44792 49.5104 6.46875 48.5313C5.48958 47.5521 5 46.375 5 45V15C5 13.625 5.48958 12.4479 6.46875 11.4688C7.44792 10.4896 8.625 10 10 10H25L30 15H50C51.375 15 52.5521 15.4896 53.5313 16.4688C54.5104 17.4479 55 18.625 55 20V45C55 46.375 54.5104 47.5521 53.5313 48.5313C52.5521 49.5104 51.375 50 50 50H10ZM10 45H50V20H27.9375L22.9375 15H10V45Z" fill="#1D1B20"/>
<path d="M17.664 30.808L16.314 27.31C16.274 27.206 16.232 27.086 16.188 26.95C16.144 26.81 16.102 26.662 16.062 26.506C15.978 26.83 15.892 27.1 15.804 27.316L14.454 30.808H17.664ZM20.088 34H19.188C19.084 34 19 33.974 18.936 33.922C18.872 33.87 18.824 33.804 18.792 33.724L17.988 31.648H14.13L13.326 33.724C13.302 33.796 13.256 33.86 13.188 33.916C13.12 33.972 13.036 34 12.936 34H12.036L15.474 25.402H16.65L20.088 34ZM22.0477 25.162V34H20.9797V25.162H22.0477ZM24.8536 32.536C25.0496 32.8 25.2636 32.986 25.4956 33.094C25.7316 33.202 25.9896 33.256 26.2696 33.256C26.8416 33.256 27.2796 33.054 27.5836 32.65C27.8876 32.246 28.0396 31.644 28.0396 30.844C28.0396 30.1 27.9036 29.554 27.6316 29.206C27.3636 28.854 26.9796 28.678 26.4796 28.678C26.1316 28.678 25.8276 28.758 25.5676 28.918C25.3116 29.078 25.0736 29.304 24.8536 29.596V32.536ZM24.8536 28.798C25.1096 28.502 25.3976 28.266 25.7176 28.09C26.0416 27.914 26.4136 27.826 26.8336 27.826C27.1896 27.826 27.5096 27.894 27.7936 28.03C28.0816 28.166 28.3256 28.364 28.5256 28.624C28.7256 28.88 28.8776 29.192 28.9816 29.56C29.0896 29.928 29.1436 30.342 29.1436 30.802C29.1436 31.294 29.0836 31.742 28.9636 32.146C28.8436 32.55 28.6696 32.896 28.4416 33.184C28.2176 33.468 27.9436 33.69 27.6196 33.85C27.2956 34.006 26.9316 34.084 26.5276 34.084C26.1276 34.084 25.7896 34.01 25.5136 33.862C25.2416 33.71 25.0036 33.496 24.7996 33.22L24.7456 33.772C24.7136 33.924 24.6216 34 24.4696 34H23.7796V25.162H24.8536V28.798ZM35.4924 27.922V34H34.8564C34.7044 34 34.6084 33.926 34.5684 33.778L34.4844 33.124C34.2204 33.416 33.9244 33.652 33.5964 33.832C33.2684 34.008 32.8924 34.096 32.4684 34.096C32.1364 34.096 31.8424 34.042 31.5864 33.934C31.3344 33.822 31.1224 33.666 30.9504 33.466C30.7784 33.266 30.6484 33.024 30.5604 32.74C30.4764 32.456 30.4344 32.142 30.4344 31.798V27.922H31.5024V31.798C31.5024 32.258 31.6064 32.614 31.8144 32.866C32.0264 33.118 32.3484 33.244 32.7804 33.244C33.0964 33.244 33.3904 33.17 33.6624 33.022C33.9384 32.87 34.1924 32.662 34.4244 32.398V27.922H35.4924ZM37.1858 34V27.922H37.8278C37.9798 27.922 38.0738 27.996 38.1098 28.144L38.1878 28.768C38.4118 28.492 38.6638 28.266 38.9438 28.09C39.2238 27.914 39.5478 27.826 39.9158 27.826C40.3238 27.826 40.6538 27.94 40.9058 28.168C41.1618 28.396 41.3458 28.704 41.4578 29.092C41.5458 28.872 41.6578 28.682 41.7938 28.522C41.9338 28.362 42.0898 28.23 42.2618 28.126C42.4338 28.022 42.6158 27.946 42.8078 27.898C43.0038 27.85 43.2018 27.826 43.4018 27.826C43.7218 27.826 44.0058 27.878 44.2538 27.982C44.5058 28.082 44.7178 28.23 44.8898 28.426C45.0658 28.622 45.1998 28.864 45.2918 29.152C45.3838 29.436 45.4298 29.762 45.4298 30.13V34H44.3558V30.13C44.3558 29.654 44.2518 29.294 44.0438 29.05C43.8358 28.802 43.5358 28.678 43.1438 28.678C42.9678 28.678 42.7998 28.71 42.6398 28.774C42.4838 28.834 42.3458 28.924 42.2258 29.044C42.1058 29.164 42.0098 29.316 41.9378 29.5C41.8698 29.68 41.8358 29.89 41.8358 30.13V34H40.7618V30.13C40.7618 29.642 40.6638 29.278 40.4678 29.038C40.2718 28.798 39.9858 28.678 39.6098 28.678C39.3458 28.678 39.1018 28.75 38.8778 28.894C38.6538 29.034 38.4478 29.226 38.2598 29.47V34H37.1858Z" fill="black"/>
<path d="M17.664 30.808V31.308H18.3929L18.1305 30.628L17.664 30.808ZM16.314 27.31L15.8473 27.4895L15.8475 27.49L16.314 27.31ZM16.188 26.95L15.711 27.0999L15.7123 27.1039L16.188 26.95ZM16.062 26.506L16.5463 26.3818L15.578 26.3805L16.062 26.506ZM15.804 27.316L15.3409 27.1273L15.3376 27.1357L15.804 27.316ZM14.454 30.808L13.9876 30.6277L13.7246 31.308H14.454V30.808ZM20.088 34V34.5H20.8264L20.5523 33.8144L20.088 34ZM18.936 33.922L18.6207 34.3101L18.6207 34.3101L18.936 33.922ZM18.792 33.724L18.3257 33.9046L18.3278 33.9097L18.792 33.724ZM17.988 31.648L18.4543 31.4674L18.3305 31.148H17.988V31.648ZM14.13 31.648V31.148H13.7875L13.6637 31.4674L14.13 31.648ZM13.326 33.724L12.8597 33.5434L12.8554 33.5546L12.8517 33.5659L13.326 33.724ZM13.188 33.916L13.5059 34.302H13.5059L13.188 33.916ZM12.036 34L11.5717 33.8144L11.2976 34.5H12.036V34ZM15.474 25.402V24.902H15.1354L15.0097 25.2164L15.474 25.402ZM16.65 25.402L17.1143 25.2164L16.9886 24.902H16.65V25.402ZM17.664 30.808L18.1305 30.628L16.7805 27.13L16.314 27.31L15.8475 27.49L17.1975 30.988L17.664 30.808ZM16.314 27.31L16.7807 27.1305C16.7447 27.0369 16.7057 26.9257 16.6637 26.7961L16.188 26.95L15.7123 27.1039C15.7583 27.2463 15.8033 27.3751 15.8473 27.4895L16.314 27.31ZM16.188 26.95L16.665 26.8001C16.6239 26.6694 16.5843 26.53 16.5463 26.3818L16.062 26.506L15.5777 26.6302C15.6197 26.794 15.6641 26.9506 15.711 27.0999L16.188 26.95ZM16.062 26.506L15.578 26.3805C15.4974 26.6914 15.4178 26.9386 15.341 27.1274L15.804 27.316L16.267 27.5046C16.3662 27.2614 16.4586 26.9686 16.546 26.6315L16.062 26.506ZM15.804 27.316L15.3376 27.1357L13.9876 30.6277L14.454 30.808L14.9204 30.9883L16.2704 27.4963L15.804 27.316ZM14.454 30.808V31.308H17.664V30.808V30.308H14.454V30.808ZM20.088 34V33.5H19.188V34V34.5H20.088V34ZM19.188 34V33.5C19.1772 33.5 19.1811 33.4986 19.1948 33.5029C19.2098 33.5075 19.2305 33.517 19.2513 33.5339L18.936 33.922L18.6207 34.3101C18.795 34.4517 18.9998 34.5 19.188 34.5V34ZM18.936 33.922L19.2513 33.5339C19.2526 33.535 19.2546 33.537 19.2564 33.5394C19.2581 33.5417 19.2577 33.542 19.2562 33.5383L18.792 33.724L18.3278 33.9097C18.3899 34.065 18.4876 34.2019 18.6207 34.3101L18.936 33.922ZM18.792 33.724L19.2583 33.5434L18.4543 31.4674L17.988 31.648L17.5217 31.8286L18.3257 33.9046L18.792 33.724ZM17.988 31.648V31.148H14.13V31.648V32.148H17.988V31.648ZM14.13 31.648L13.6637 31.4674L12.8597 33.5434L13.326 33.724L13.7923 33.9046L14.5963 31.8286L14.13 31.648ZM13.326 33.724L12.8517 33.5659C12.8562 33.5523 12.8623 33.5415 12.8675 33.5342C12.8724 33.5273 12.8747 33.5263 12.8701 33.53L13.188 33.916L13.5059 34.302C13.6345 34.196 13.7421 34.0568 13.8003 33.8821L13.326 33.724ZM13.188 33.916L12.8701 33.53C12.8838 33.5188 12.9 33.51 12.9159 33.5047C12.931 33.4996 12.9391 33.5 12.936 33.5V34V34.5C13.1354 34.5 13.3363 34.4416 13.5059 34.302L13.188 33.916ZM12.936 34V33.5H12.036V34V34.5H12.936V34ZM12.036 34L12.5003 34.1856L15.9383 25.5876L15.474 25.402L15.0097 25.2164L11.5717 33.8144L12.036 34ZM15.474 25.402V25.902H16.65V25.402V24.902H15.474V25.402ZM16.65 25.402L16.1857 25.5876L19.6237 34.1856L20.088 34L20.5523 33.8144L17.1143 25.2164L16.65 25.402ZM22.0477 25.162H22.5477V24.662H22.0477V25.162ZM22.0477 34V34.5H22.5477V34H22.0477ZM20.9797 34H20.4797V34.5H20.9797V34ZM20.9797 25.162V24.662H20.4797V25.162H20.9797ZM22.0477 25.162H21.5477V34H22.0477H22.5477V25.162H22.0477ZM22.0477 34V33.5H20.9797V34V34.5H22.0477V34ZM20.9797 34H21.4797V25.162H20.9797H20.4797V34H20.9797ZM20.9797 25.162V25.662H22.0477V25.162V24.662H20.9797V25.162ZM24.8536 32.536H24.3536V32.7013L24.4521 32.8341L24.8536 32.536ZM25.4956 33.094L25.2846 33.5473L25.2875 33.5487L25.4956 33.094ZM27.5836 32.65L27.1841 32.3494V32.3494L27.5836 32.65ZM27.6316 29.206L27.2337 29.5089L27.2376 29.5139L27.6316 29.206ZM25.5676 28.918L25.3055 28.4922L25.3026 28.494L25.5676 28.918ZM24.8536 29.596L24.4543 29.2951L24.3536 29.4287V29.596H24.8536ZM24.8536 28.798H24.3536V30.1405L25.2318 29.1251L24.8536 28.798ZM25.7176 28.09L25.4789 27.6506L25.4766 27.6519L25.7176 28.09ZM27.7936 28.03L27.5776 28.481L27.5801 28.4821L27.7936 28.03ZM28.5256 28.624L28.1293 28.9289L28.1316 28.9318L28.5256 28.624ZM28.9816 29.56L28.5004 29.696L28.5018 29.7008L28.9816 29.56ZM28.9636 32.146L28.4843 32.0036V32.0036L28.9636 32.146ZM28.4416 33.184L28.0496 32.8736L28.049 32.8744L28.4416 33.184ZM27.6196 33.85L27.8365 34.3005L27.841 34.2983L27.6196 33.85ZM25.5136 33.862L25.2696 34.2985L25.2773 34.3026L25.5136 33.862ZM24.7996 33.22L25.2017 32.9228L24.4286 31.8769L24.302 33.1713L24.7996 33.22ZM24.7456 33.772L25.2349 33.875L25.2405 33.8481L25.2432 33.8207L24.7456 33.772ZM23.7796 34H23.2796V34.5H23.7796V34ZM23.7796 25.162V24.662H23.2796V25.162H23.7796ZM24.8536 25.162H25.3536V24.662H24.8536V25.162ZM24.8536 32.536L24.4521 32.8341C24.684 33.1463 24.9587 33.3956 25.2846 33.5473L25.4956 33.094L25.7066 32.6407C25.5685 32.5764 25.4152 32.4537 25.255 32.238L24.8536 32.536ZM25.4956 33.094L25.2875 33.5487C25.5939 33.6888 25.9235 33.756 26.2696 33.756V33.256V32.756C26.0557 32.756 25.8693 32.7152 25.7037 32.6393L25.4956 33.094ZM26.2696 33.256V33.756C26.9751 33.756 27.5713 33.4979 27.9831 32.9506L27.5836 32.65L27.1841 32.3494C26.9879 32.6101 26.7081 32.756 26.2696 32.756V33.256ZM27.5836 32.65L27.9831 32.9506C28.3805 32.4225 28.5396 31.6937 28.5396 30.844H28.0396H27.5396C27.5396 31.5943 27.3947 32.0695 27.1841 32.3494L27.5836 32.65ZM28.0396 30.844H28.5396C28.5396 30.0579 28.3994 29.3764 28.0255 28.8981L27.6316 29.206L27.2376 29.5139C27.4078 29.7316 27.5396 30.1421 27.5396 30.844H28.0396ZM27.6316 29.206L28.0294 28.9031C27.6536 28.4095 27.1125 28.178 26.4796 28.178V28.678V29.178C26.8467 29.178 27.0736 29.2985 27.2338 29.5089L27.6316 29.206ZM26.4796 28.678V28.178C26.0523 28.178 25.6549 28.2772 25.3055 28.4922L25.5676 28.918L25.8296 29.3438C26.0003 29.2388 26.2109 29.178 26.4796 29.178V28.678ZM25.5676 28.918L25.3026 28.494C24.985 28.6925 24.7036 28.9642 24.4543 29.2951L24.8536 29.596L25.2529 29.8969C25.4436 29.6438 25.6382 29.4635 25.8326 29.342L25.5676 28.918ZM24.8536 29.596H24.3536V32.536H24.8536H25.3536V29.596H24.8536ZM24.8536 28.798L25.2318 29.1251C25.4518 28.8707 25.6941 28.6735 25.9586 28.5281L25.7176 28.09L25.4766 27.6519C25.1011 27.8585 24.7674 28.1333 24.4754 28.4709L24.8536 28.798ZM25.7176 28.09L25.9563 28.5294C26.1973 28.3984 26.4852 28.326 26.8336 28.326V27.826V27.326C26.342 27.326 25.8858 27.4296 25.4789 27.6506L25.7176 28.09ZM26.8336 27.826V28.326C27.1247 28.326 27.3694 28.3812 27.5776 28.481L27.7936 28.03L28.0095 27.579C27.6498 27.4068 27.2545 27.326 26.8336 27.326V27.826ZM27.7936 28.03L27.5801 28.4821C27.7941 28.5832 27.9762 28.7298 28.1293 28.9289L28.5256 28.624L28.9219 28.3191C28.675 27.9982 28.369 27.7488 28.0071 27.5779L27.7936 28.03ZM28.5256 28.624L28.1316 28.9318C28.2853 29.1285 28.411 29.3795 28.5004 29.696L28.9816 29.56L29.4627 29.424C29.3442 29.0045 29.1659 28.6315 28.9196 28.3162L28.5256 28.624ZM28.9816 29.56L28.5018 29.7008C28.594 30.015 28.6436 30.3805 28.6436 30.802H29.1436H29.6436C29.6436 30.3035 29.5851 29.841 29.4614 29.4192L28.9816 29.56ZM29.1436 30.802H28.6436C28.6436 31.2537 28.5885 31.6528 28.4843 32.0036L28.9636 32.146L29.4429 32.2884C29.5787 31.8312 29.6436 31.3343 29.6436 30.802H29.1436ZM28.9636 32.146L28.4843 32.0036C28.3798 32.3555 28.2327 32.6424 28.0496 32.8736L28.4416 33.184L28.8336 33.4944C29.1065 33.1496 29.3074 32.7445 29.4429 32.2884L28.9636 32.146ZM28.4416 33.184L28.049 32.8744C27.871 33.1 27.6555 33.2746 27.3982 33.4017L27.6196 33.85L27.841 34.2983C28.2317 34.1054 28.5642 33.836 28.8342 33.4936L28.4416 33.184ZM27.6196 33.85L27.4027 33.3995C27.1543 33.5191 26.8658 33.584 26.5276 33.584V34.084V34.584C26.9974 34.584 27.4369 34.4929 27.8365 34.3005L27.6196 33.85ZM26.5276 34.084V33.584C26.1878 33.584 25.9358 33.5211 25.7499 33.4214L25.5136 33.862L25.2773 34.3026C25.6434 34.4989 26.0674 34.584 26.5276 34.584V34.084ZM25.5136 33.862L25.7575 33.4255C25.5536 33.3116 25.3678 33.1475 25.2017 32.9228L24.7996 33.22L24.3975 33.5172C24.6394 33.8445 24.9296 34.1084 25.2697 34.2985L25.5136 33.862ZM24.7996 33.22L24.302 33.1713L24.248 33.7233L24.7456 33.772L25.2432 33.8207L25.2972 33.2687L24.7996 33.22ZM24.7456 33.772L24.2563 33.669C24.2565 33.6679 24.2696 33.6109 24.3342 33.5575C24.4 33.5031 24.4619 33.5 24.4696 33.5V34V34.5C24.6293 34.5 24.8132 34.4589 24.971 34.3285C25.1276 34.1991 25.2026 34.0281 25.2349 33.875L24.7456 33.772ZM24.4696 34V33.5H23.7796V34V34.5H24.4696V34ZM23.7796 34H24.2796V25.162H23.7796H23.2796V34H23.7796ZM23.7796 25.162V25.662H24.8536V25.162V24.662H23.7796V25.162ZM24.8536 25.162H24.3536V28.798H24.8536H25.3536V25.162H24.8536ZM35.4924 27.922H35.9924V27.422H35.4924V27.922ZM35.4924 34V34.5H35.9924V34H35.4924ZM34.5684 33.778L34.0725 33.8417L34.0769 33.8755L34.0858 33.9085L34.5684 33.778ZM34.4844 33.124L34.9804 33.0603L34.842 31.983L34.1136 32.7887L34.4844 33.124ZM33.5964 33.832L33.8329 34.2726L33.837 34.2703L33.5964 33.832ZM31.5864 33.934L31.3833 34.391L31.3921 34.3947L31.5864 33.934ZM30.9504 33.466L30.5713 33.792V33.792L30.9504 33.466ZM30.5604 32.74L30.0809 32.8818L30.0828 32.888L30.5604 32.74ZM30.4344 27.922V27.422H29.9344V27.922H30.4344ZM31.5024 27.922H32.0024V27.422H31.5024V27.922ZM31.8144 32.866L31.4288 33.1843L31.4318 33.1879L31.8144 32.866ZM33.6624 33.022L33.9014 33.4612L33.9036 33.46L33.6624 33.022ZM34.4244 32.398L34.8 32.7281L34.9244 32.5865V32.398H34.4244ZM34.4244 27.922V27.422H33.9244V27.922H34.4244ZM35.4924 27.922H34.9924V34H35.4924H35.9924V27.922H35.4924ZM35.4924 34V33.5H34.8564V34V34.5H35.4924V34ZM34.8564 34V33.5C34.8623 33.5 34.916 33.5025 34.9757 33.5485C35.0349 33.5942 35.0502 33.6443 35.0511 33.6475L34.5684 33.778L34.0858 33.9085C34.1266 34.0597 34.2099 34.2208 34.3652 34.3405C34.5209 34.4605 34.6985 34.5 34.8564 34.5V34ZM34.5684 33.778L35.0644 33.7143L34.9804 33.0603L34.4844 33.124L33.9885 33.1877L34.0725 33.8417L34.5684 33.778ZM34.4844 33.124L34.1136 32.7887C33.885 33.0415 33.6325 33.2419 33.3559 33.3937L33.5964 33.832L33.837 34.2703C34.2164 34.0621 34.5559 33.7905 34.8553 33.4593L34.4844 33.124ZM33.5964 33.832L33.36 33.3914C33.1143 33.5233 32.8215 33.596 32.4684 33.596V34.096V34.596C32.9633 34.596 33.4226 34.4927 33.8328 34.2726L33.5964 33.832ZM32.4684 34.096V33.596C32.1904 33.596 31.9645 33.5508 31.7808 33.4733L31.5864 33.934L31.3921 34.3947C31.7204 34.5332 32.0824 34.596 32.4684 34.596V34.096ZM31.5864 33.934L31.7895 33.4771C31.602 33.3938 31.4511 33.2813 31.3295 33.14L30.9504 33.466L30.5713 33.792C30.7938 34.0507 31.0669 34.2502 31.3834 34.3909L31.5864 33.934ZM30.9504 33.466L31.3295 33.14C31.2076 32.9982 31.1083 32.8189 31.038 32.592L30.5604 32.74L30.0828 32.888C30.1885 33.2291 30.3493 33.5338 30.5713 33.792L30.9504 33.466ZM30.5604 32.74L31.0399 32.5982C30.9715 32.367 30.9344 32.1015 30.9344 31.798H30.4344H29.9344C29.9344 32.1825 29.9814 32.545 30.081 32.8818L30.5604 32.74ZM30.4344 31.798H30.9344V27.922H30.4344H29.9344V31.798H30.4344ZM30.4344 27.922V28.422H31.5024V27.922V27.422H30.4344V27.922ZM31.5024 27.922H31.0024V31.798H31.5024H32.0024V27.922H31.5024ZM31.5024 31.798H31.0024C31.0024 32.3275 31.1218 32.8123 31.4288 33.1843L31.8144 32.866L32.2 32.5477C32.0911 32.4157 32.0024 32.1885 32.0024 31.798H31.5024ZM31.8144 32.866L31.4318 33.1879C31.7665 33.5857 32.2501 33.744 32.7804 33.744V33.244V32.744C32.4468 32.744 32.2864 32.6503 32.1971 32.5441L31.8144 32.866ZM32.7804 33.244V33.744C33.1781 33.744 33.5545 33.6499 33.9014 33.4612L33.6624 33.022L33.4235 32.5828C33.2263 32.6901 33.0147 32.744 32.7804 32.744V33.244ZM33.6624 33.022L33.9036 33.46C34.2358 33.277 34.5342 33.0306 34.8 32.7281L34.4244 32.398L34.0489 32.0679C33.8507 32.2934 33.641 32.463 33.4212 32.584L33.6624 33.022ZM34.4244 32.398H34.9244V27.922H34.4244H33.9244V32.398H34.4244ZM34.4244 27.922V28.422H35.4924V27.922V27.422H34.4244V27.922ZM37.1858 34H36.6858V34.5H37.1858V34ZM37.1858 27.922V27.422H36.6858V27.922H37.1858ZM38.1098 28.144L38.606 28.082L38.6024 28.0536L38.5957 28.0258L38.1098 28.144ZM38.1878 28.768L37.6917 28.83L37.8371 29.9935L38.5761 29.0831L38.1878 28.768ZM38.9438 28.09L38.6778 27.6667V27.6667L38.9438 28.09ZM40.9058 28.168L40.5704 28.5388L40.5733 28.5414L40.9058 28.168ZM41.4578 29.092L40.9775 29.2307L41.3813 30.6297L41.9221 29.2777L41.4578 29.092ZM41.7938 28.522L41.4175 28.1927L41.4129 28.1982L41.7938 28.522ZM42.2618 28.126L42.0031 27.6981V27.6981L42.2618 28.126ZM42.8078 27.898L42.6889 27.4123L42.6866 27.4129L42.8078 27.898ZM44.2538 27.982L44.0604 28.4432L44.0694 28.4467L44.2538 27.982ZM44.8898 28.426L44.514 28.7558L44.5178 28.7601L44.8898 28.426ZM45.2918 29.152L44.8156 29.3041L44.8162 29.3061L45.2918 29.152ZM45.4298 34V34.5H45.9298V34H45.4298ZM44.3558 34H43.8558V34.5H44.3558V34ZM44.0438 29.05L43.6607 29.3713L43.6633 29.3744L44.0438 29.05ZM42.6398 28.774L42.8193 29.2407L42.8255 29.2382L42.6398 28.774ZM42.2258 29.044L42.5794 29.3976V29.3976L42.2258 29.044ZM41.9378 29.5L41.4722 29.3178L41.4701 29.3233L41.9378 29.5ZM41.8358 34V34.5H42.3358V34H41.8358ZM40.7618 34H40.2618V34.5H40.7618V34ZM40.4678 29.038L40.0806 29.3543V29.3543L40.4678 29.038ZM38.8778 28.894L39.1429 29.318L39.1482 29.3146L38.8778 28.894ZM38.2598 29.47L37.8638 29.1648L37.7598 29.2997V29.47H38.2598ZM38.2598 34V34.5H38.7598V34H38.2598ZM37.1858 34H37.6858V27.922H37.1858H36.6858V34H37.1858ZM37.1858 27.922V28.422H37.8278V27.922V27.422H37.1858V27.922ZM37.8278 27.922V28.422C37.8225 28.422 37.7657 28.4197 37.7031 28.3704C37.6405 28.3211 37.6251 28.2668 37.624 28.2622L38.1098 28.144L38.5957 28.0258C38.5586 27.8732 38.4782 27.7079 38.3216 27.5846C38.165 27.4613 37.9852 27.422 37.8278 27.422V27.922ZM38.1098 28.144L37.6137 28.206L37.6917 28.83L38.1878 28.768L38.684 28.706L38.606 28.082L38.1098 28.144ZM38.1878 28.768L38.5761 29.0831C38.7681 28.8464 38.9796 28.6581 39.2099 28.5133L38.9438 28.09L38.6778 27.6667C38.348 27.8739 38.0555 28.1376 37.7996 28.4529L38.1878 28.768ZM38.9438 28.09L39.2099 28.5133C39.4014 28.3929 39.631 28.326 39.9158 28.326V27.826V27.326C39.4646 27.326 39.0463 27.4351 38.6778 27.6667L38.9438 28.09ZM39.9158 27.826V28.326C40.2261 28.326 40.4281 28.41 40.5704 28.5388L40.9058 28.168L41.2413 27.7972C40.8796 27.47 40.4216 27.326 39.9158 27.326V27.826ZM40.9058 28.168L40.5733 28.5414C40.7471 28.6962 40.8869 28.9169 40.9775 29.2307L41.4578 29.092L41.9382 28.9533C41.8048 28.4911 41.5765 28.0958 41.2384 27.7946L40.9058 28.168ZM41.4578 29.092L41.9221 29.2777C41.9925 29.1016 42.078 28.9597 42.1748 28.8458L41.7938 28.522L41.4129 28.1982C41.2376 28.4043 41.0992 28.6424 40.9936 28.9063L41.4578 29.092ZM41.7938 28.522L42.1701 28.8513C42.2782 28.7277 42.3951 28.6297 42.5206 28.5539L42.2618 28.126L42.0031 27.6981C41.7846 27.8303 41.5895 27.9963 41.4176 28.1927L41.7938 28.522ZM42.2618 28.126L42.5206 28.5539C42.6505 28.4753 42.7863 28.4188 42.9291 28.3831L42.8078 27.898L42.6866 27.4129C42.4454 27.4732 42.2172 27.5687 42.0031 27.6981L42.2618 28.126ZM42.8078 27.898L42.9268 28.3836C43.0842 28.3451 43.2423 28.326 43.4018 28.326V27.826V27.326C43.1614 27.326 42.9235 27.3549 42.6889 27.4124L42.8078 27.898ZM43.4018 27.826V28.326C43.6678 28.326 43.8842 28.3692 44.0605 28.4431L44.2538 27.982L44.4472 27.5209C44.1275 27.3868 43.7759 27.326 43.4018 27.326V27.826ZM44.2538 27.982L44.0694 28.4467C44.2509 28.5187 44.3963 28.6217 44.514 28.7558L44.8898 28.426L45.2657 28.0962C45.0393 27.8383 44.7608 27.6453 44.4383 27.5173L44.2538 27.982ZM44.8898 28.426L44.5178 28.7601C44.6401 28.8963 44.7419 29.0736 44.8156 29.3041L45.2918 29.152L45.7681 28.9999C45.6578 28.6544 45.4916 28.3477 45.2619 28.0919L44.8898 28.426ZM45.2918 29.152L44.8162 29.3061C44.8888 29.5303 44.9298 29.8026 44.9298 30.13H45.4298H45.9298C45.9298 29.7214 45.8789 29.3417 45.7675 28.9979L45.2918 29.152ZM45.4298 30.13H44.9298V34H45.4298H45.9298V30.13H45.4298ZM45.4298 34V33.5H44.3558V34V34.5H45.4298V34ZM44.3558 34H44.8558V30.13H44.3558H43.8558V34H44.3558ZM44.3558 30.13H44.8558C44.8558 29.591 44.7393 29.0951 44.4244 28.7256L44.0438 29.05L43.6633 29.3744C43.7644 29.4929 43.8558 29.717 43.8558 30.13H44.3558ZM44.0438 29.05L44.4269 28.7287C44.1039 28.3435 43.6494 28.178 43.1438 28.178V28.678V29.178C43.4223 29.178 43.5678 29.2605 43.6607 29.3713L44.0438 29.05ZM43.1438 28.678V28.178C42.9056 28.178 42.6745 28.2216 42.4541 28.3098L42.6398 28.774L42.8255 29.2382C42.9252 29.1984 43.0301 29.178 43.1438 29.178V28.678ZM42.6398 28.774L42.4604 28.3073C42.238 28.3928 42.041 28.5218 41.8723 28.6904L42.2258 29.044L42.5794 29.3976C42.6507 29.3262 42.7297 29.2752 42.8193 29.2407L42.6398 28.774ZM42.2258 29.044L41.8723 28.6904C41.6962 28.8666 41.5653 29.08 41.4722 29.3178L41.9378 29.5L42.4035 29.6822C42.4544 29.552 42.5155 29.4614 42.5794 29.3976L42.2258 29.044ZM41.9378 29.5L41.4701 29.3233C41.3762 29.5718 41.3358 29.844 41.3358 30.13H41.8358H42.3358C42.3358 29.936 42.3635 29.7882 42.4056 29.6767L41.9378 29.5ZM41.8358 30.13H41.3358V34H41.8358H42.3358V30.13H41.8358ZM41.8358 34V33.5H40.7618V34V34.5H41.8358V34ZM40.7618 34H41.2618V30.13H40.7618H40.2618V34H40.7618ZM40.7618 30.13H41.2618C41.2618 29.5891 41.1556 29.0897 40.8551 28.7217L40.4678 29.038L40.0806 29.3543C40.1721 29.4663 40.2618 29.6949 40.2618 30.13H40.7618ZM40.4678 29.038L40.8551 28.7217C40.5438 28.3406 40.1006 28.178 39.6098 28.178V28.678V29.178C39.8711 29.178 39.9998 29.2554 40.0806 29.3543L40.4678 29.038ZM39.6098 28.678V28.178C39.2491 28.178 38.9114 28.278 38.6075 28.4734L38.8778 28.894L39.1482 29.3146C39.2923 29.222 39.4426 29.178 39.6098 29.178V28.678ZM38.8778 28.894L38.6128 28.47C38.3308 28.6463 38.0821 28.8814 37.8638 29.1648L38.2598 29.47L38.6559 29.7752C38.8136 29.5706 38.9769 29.4217 39.1428 29.318L38.8778 28.894ZM38.2598 29.47H37.7598V34H38.2598H38.7598V29.47H38.2598ZM38.2598 34V33.5H37.1858V34V34.5H38.2598V34Z" fill="black"/>
</svg>
