<svg width="60" height="60" viewBox="0 0 60 60" fill="none" xmlns="http://www.w3.org/2000/svg">
<path d="M10 50C8.625 50 7.44792 49.5104 6.46875 48.5313C5.48958 47.5521 5 46.375 5 45V15C5 13.625 5.48958 12.4479 6.46875 11.4688C7.44792 10.4896 8.625 10 10 10H25L30 15H50C51.375 15 52.5521 15.4896 53.5313 16.4688C54.5104 17.4479 55 18.625 55 20V45C55 46.375 54.5104 47.5521 53.5313 48.5313C52.5521 49.5104 51.375 50 50 50H10ZM10 45H50V20H27.9375L22.9375 15H10V45Z" fill="#1D1B20"/>
<path d="M16.664 31.808L15.314 28.31C15.274 28.206 15.232 28.086 15.188 27.95C15.144 27.81 15.102 27.662 15.062 27.506C14.978 27.83 14.892 28.1 14.804 28.316L13.454 31.808H16.664ZM19.088 35H18.188C18.084 35 18 34.974 17.936 34.922C17.872 34.87 17.824 34.804 17.792 34.724L16.988 32.648H13.13L12.326 34.724C12.302 34.796 12.256 34.86 12.188 34.916C12.12 34.972 12.036 35 11.936 35H11.036L14.474 26.402H15.65L19.088 35ZM20.9577 30.14C21.1497 29.724 21.3857 29.4 21.6657 29.168C21.9457 28.932 22.2877 28.814 22.6917 28.814C22.8197 28.814 22.9417 28.828 23.0577 28.856C23.1777 28.884 23.2837 28.928 23.3757 28.988L23.2977 29.786C23.2737 29.886 23.2137 29.936 23.1177 29.936C23.0617 29.936 22.9797 29.924 22.8717 29.9C22.7637 29.876 22.6417 29.864 22.5057 29.864C22.3137 29.864 22.1417 29.892 21.9897 29.948C21.8417 30.004 21.7077 30.088 21.5877 30.2C21.4717 30.308 21.3657 30.444 21.2697 30.608C21.1777 30.768 21.0937 30.952 21.0177 31.16V35H19.9437V28.922H20.5557C20.6717 28.922 20.7517 28.944 20.7957 28.988C20.8397 29.032 20.8697 29.108 20.8857 29.216L20.9577 30.14ZM29.9548 35H28.8868V29.816H25.7548V33.464C25.7548 33.72 25.8168 33.91 25.9408 34.034C26.0648 34.158 26.2248 34.22 26.4208 34.22C26.5328 34.22 26.6288 34.206 26.7088 34.178C26.7928 34.146 26.8648 34.112 26.9248 34.076C26.9848 34.04 27.0348 34.008 27.0748 33.98C27.1188 33.948 27.1568 33.932 27.1888 33.932C27.2448 33.932 27.2948 33.966 27.3388 34.034L27.6508 34.544C27.4668 34.716 27.2448 34.852 26.9848 34.952C26.7248 35.048 26.4568 35.096 26.1808 35.096C25.7008 35.096 25.3308 34.962 25.0708 34.694C24.8148 34.426 24.6868 34.04 24.6868 33.536V29.816H23.9548C23.8908 29.816 23.8368 29.798 23.7928 29.762C23.7488 29.722 23.7268 29.662 23.7268 29.582V29.156L24.7228 29.024L24.9688 27.152C24.9808 27.092 25.0068 27.044 25.0468 27.008C25.0908 26.968 25.1468 26.948 25.2148 26.948H25.7548V29.042H29.9548V35ZM30.2188 26.972C30.2188 27.076 30.1968 27.174 30.1528 27.266C30.1128 27.354 30.0568 27.432 29.9848 27.5C29.9168 27.568 29.8368 27.622 29.7448 27.662C29.6528 27.702 29.5548 27.722 29.4508 27.722C29.3468 27.722 29.2488 27.702 29.1568 27.662C29.0688 27.622 28.9908 27.568 28.9228 27.5C28.8548 27.432 28.8008 27.354 28.7608 27.266C28.7208 27.174 28.7008 27.076 28.7008 26.972C28.7008 26.868 28.7208 26.77 28.7608 26.678C28.8008 26.582 28.8548 26.5 28.9228 26.432C28.9908 26.36 29.0688 26.304 29.1568 26.264C29.2488 26.224 29.3468 26.204 29.4508 26.204C29.5548 26.204 29.6528 26.224 29.7448 26.264C29.8368 26.304 29.9168 26.36 29.9848 26.432C30.0568 26.5 30.1128 26.582 30.1528 26.678C30.1968 26.77 30.2188 26.868 30.2188 26.972ZM35.2493 29.924C35.2013 30.012 35.1273 30.056 35.0273 30.056C34.9673 30.056 34.8993 30.034 34.8233 29.99C34.7473 29.946 34.6533 29.898 34.5413 29.846C34.4333 29.79 34.3033 29.74 34.1513 29.696C33.9993 29.648 33.8193 29.624 33.6113 29.624C33.4313 29.624 33.2693 29.648 33.1253 29.696C32.9813 29.74 32.8573 29.802 32.7533 29.882C32.6533 29.962 32.5753 30.056 32.5193 30.164C32.4673 30.268 32.4413 30.382 32.4413 30.506C32.4413 30.662 32.4853 30.792 32.5733 30.896C32.6653 31 32.7853 31.09 32.9333 31.166C33.0813 31.242 33.2493 31.31 33.4373 31.37C33.6253 31.426 33.8173 31.488 34.0133 31.556C34.2133 31.62 34.4073 31.692 34.5953 31.772C34.7833 31.852 34.9513 31.952 35.0993 32.072C35.2473 32.192 35.3653 32.34 35.4533 32.516C35.5453 32.688 35.5913 32.896 35.5913 33.14C35.5913 33.42 35.5413 33.68 35.4413 33.92C35.3413 34.156 35.1933 34.362 34.9973 34.538C34.8013 34.71 34.5613 34.846 34.2773 34.946C33.9933 35.046 33.6653 35.096 33.2933 35.096C32.8693 35.096 32.4853 35.028 32.1413 34.892C31.7973 34.752 31.5053 34.574 31.2653 34.358L31.5173 33.95C31.5493 33.898 31.5873 33.858 31.6313 33.83C31.6753 33.802 31.7313 33.788 31.7993 33.788C31.8713 33.788 31.9473 33.816 32.0273 33.872C32.1073 33.928 32.2033 33.99 32.3153 34.058C32.4313 34.126 32.5713 34.188 32.7353 34.244C32.8993 34.3 33.1033 34.328 33.3473 34.328C33.5553 34.328 33.7373 34.302 33.8933 34.25C34.0493 34.194 34.1793 34.12 34.2833 34.028C34.3873 33.936 34.4633 33.83 34.5113 33.71C34.5633 33.59 34.5893 33.462 34.5893 33.326C34.5893 33.158 34.5433 33.02 34.4513 32.912C34.3633 32.8 34.2453 32.706 34.0973 32.63C33.9493 32.55 33.7793 32.482 33.5873 32.426C33.3993 32.366 33.2053 32.304 33.0053 32.24C32.8093 32.176 32.6153 32.104 32.4233 32.024C32.2353 31.94 32.0673 31.836 31.9193 31.712C31.7713 31.588 31.6513 31.436 31.5593 31.256C31.4713 31.072 31.4273 30.85 31.4273 30.59C31.4273 30.358 31.4753 30.136 31.5713 29.924C31.6673 29.708 31.8073 29.52 31.9913 29.36C32.1753 29.196 32.4013 29.066 32.6693 28.97C32.9373 28.874 33.2433 28.826 33.5873 28.826C33.9873 28.826 34.3453 28.89 34.6613 29.018C34.9813 29.142 35.2573 29.314 35.4893 29.534L35.2493 29.924ZM38.7667 35.096C38.2867 35.096 37.9167 34.962 37.6567 34.694C37.4007 34.426 37.2727 34.04 37.2727 33.536V29.816H36.5407C36.4767 29.816 36.4227 29.798 36.3787 29.762C36.3347 29.722 36.3127 29.662 36.3127 29.582V29.156L37.3087 29.03L37.5547 27.152C37.5667 27.092 37.5927 27.044 37.6327 27.008C37.6767 26.968 37.7327 26.948 37.8007 26.948H38.3407V29.042H40.0987V29.816H38.3407V33.464C38.3407 33.72 38.4027 33.91 38.5267 34.034C38.6507 34.158 38.8107 34.22 39.0067 34.22C39.1187 34.22 39.2147 34.206 39.2947 34.178C39.3787 34.146 39.4507 34.112 39.5107 34.076C39.5707 34.04 39.6207 34.008 39.6607 33.98C39.7047 33.948 39.7427 33.932 39.7747 33.932C39.8307 33.932 39.8807 33.966 39.9247 34.034L40.2367 34.544C40.0527 34.716 39.8307 34.852 39.5707 34.952C39.3107 35.048 39.0427 35.096 38.7667 35.096ZM45.2343 31.298C45.2343 31.05 45.1983 30.824 45.1263 30.62C45.0583 30.412 44.9563 30.234 44.8203 30.086C44.6883 29.934 44.5263 29.818 44.3343 29.738C44.1423 29.654 43.9243 29.612 43.6803 29.612C43.1683 29.612 42.7623 29.762 42.4623 30.062C42.1663 30.358 41.9823 30.77 41.9103 31.298H45.2343ZM46.0983 34.148C45.9663 34.308 45.8083 34.448 45.6243 34.568C45.4403 34.684 45.2423 34.78 45.0303 34.856C44.8223 34.932 44.6063 34.988 44.3823 35.024C44.1583 35.064 43.9363 35.084 43.7163 35.084C43.2963 35.084 42.9083 35.014 42.5523 34.874C42.2003 34.73 41.8943 34.522 41.6343 34.25C41.3783 33.974 41.1783 33.634 41.0343 33.23C40.8903 32.826 40.8183 32.362 40.8183 31.838C40.8183 31.414 40.8823 31.018 41.0103 30.65C41.1423 30.282 41.3303 29.964 41.5743 29.696C41.8183 29.424 42.1163 29.212 42.4683 29.06C42.8203 28.904 43.2163 28.826 43.6563 28.826C44.0203 28.826 44.3563 28.888 44.6643 29.012C44.9763 29.132 45.2443 29.308 45.4683 29.54C45.6963 29.768 45.8743 30.052 46.0023 30.392C46.1303 30.728 46.1943 31.112 46.1943 31.544C46.1943 31.712 46.1763 31.824 46.1403 31.88C46.1043 31.936 46.0363 31.964 45.9363 31.964H41.8743C41.8863 32.348 41.9383 32.682 42.0303 32.966C42.1263 33.25 42.2583 33.488 42.4263 33.68C42.5943 33.868 42.7943 34.01 43.0263 34.106C43.2583 34.198 43.5183 34.244 43.8063 34.244C44.0743 34.244 44.3043 34.214 44.4963 34.154C44.6923 34.09 44.8603 34.022 45.0003 33.95C45.1403 33.878 45.2563 33.812 45.3483 33.752C45.4443 33.688 45.5263 33.656 45.5943 33.656C45.6823 33.656 45.7503 33.69 45.7983 33.758L46.0983 34.148Z" fill="black"/>
<path d="M16.664 31.808V32.308H17.3929L17.1305 31.628L16.664 31.808ZM15.314 28.31L14.8473 28.4895L14.8475 28.49L15.314 28.31ZM15.188 27.95L14.711 28.0999L14.7123 28.1039L15.188 27.95ZM15.062 27.506L15.5463 27.3818L14.578 27.3805L15.062 27.506ZM14.804 28.316L14.3409 28.1273L14.3376 28.1357L14.804 28.316ZM13.454 31.808L12.9876 31.6277L12.7246 32.308H13.454V31.808ZM19.088 35V35.5H19.8264L19.5523 34.8144L19.088 35ZM17.936 34.922L17.6207 35.3101L17.6207 35.3101L17.936 34.922ZM17.792 34.724L17.3257 34.9046L17.3278 34.9097L17.792 34.724ZM16.988 32.648L17.4543 32.4674L17.3305 32.148H16.988V32.648ZM13.13 32.648V32.148H12.7875L12.6637 32.4674L13.13 32.648ZM12.326 34.724L11.8597 34.5434L11.8554 34.5546L11.8517 34.5659L12.326 34.724ZM12.188 34.916L12.5059 35.302H12.5059L12.188 34.916ZM11.036 35L10.5717 34.8144L10.2976 35.5H11.036V35ZM14.474 26.402V25.902H14.1354L14.0097 26.2164L14.474 26.402ZM15.65 26.402L16.1143 26.2164L15.9886 25.902H15.65V26.402ZM16.664 31.808L17.1305 31.628L15.7805 28.13L15.314 28.31L14.8475 28.49L16.1975 31.988L16.664 31.808ZM15.314 28.31L15.7807 28.1305C15.7447 28.0369 15.7057 27.9257 15.6637 27.7961L15.188 27.95L14.7123 28.1039C14.7583 28.2463 14.8033 28.3751 14.8473 28.4895L15.314 28.31ZM15.188 27.95L15.665 27.8001C15.6239 27.6694 15.5843 27.53 15.5463 27.3818L15.062 27.506L14.5777 27.6302C14.6197 27.794 14.6641 27.9506 14.711 28.0999L15.188 27.95ZM15.062 27.506L14.578 27.3805C14.4974 27.6914 14.4178 27.9386 14.341 28.1274L14.804 28.316L15.267 28.5046C15.3662 28.2614 15.4586 27.9686 15.546 27.6315L15.062 27.506ZM14.804 28.316L14.3376 28.1357L12.9876 31.6277L13.454 31.808L13.9204 31.9883L15.2704 28.4963L14.804 28.316ZM13.454 31.808V32.308H16.664V31.808V31.308H13.454V31.808ZM19.088 35V34.5H18.188V35V35.5H19.088V35ZM18.188 35V34.5C18.1772 34.5 18.1811 34.4986 18.1948 34.5029C18.2098 34.5075 18.2305 34.517 18.2513 34.5339L17.936 34.922L17.6207 35.3101C17.795 35.4517 17.9998 35.5 18.188 35.5V35ZM17.936 34.922L18.2513 34.5339C18.2526 34.535 18.2546 34.537 18.2564 34.5394C18.2581 34.5417 18.2577 34.542 18.2562 34.5383L17.792 34.724L17.3278 34.9097C17.3899 35.065 17.4876 35.2019 17.6207 35.3101L17.936 34.922ZM17.792 34.724L18.2583 34.5434L17.4543 32.4674L16.988 32.648L16.5217 32.8286L17.3257 34.9046L17.792 34.724ZM16.988 32.648V32.148H13.13V32.648V33.148H16.988V32.648ZM13.13 32.648L12.6637 32.4674L11.8597 34.5434L12.326 34.724L12.7923 34.9046L13.5963 32.8286L13.13 32.648ZM12.326 34.724L11.8517 34.5659C11.8562 34.5523 11.8623 34.5415 11.8675 34.5342C11.8724 34.5273 11.8747 34.5263 11.8701 34.53L12.188 34.916L12.5059 35.302C12.6345 35.196 12.7421 35.0568 12.8003 34.8821L12.326 34.724ZM12.188 34.916L11.8701 34.53C11.8838 34.5188 11.9 34.51 11.9159 34.5047C11.931 34.4996 11.9391 34.5 11.936 34.5V35V35.5C12.1354 35.5 12.3363 35.4416 12.5059 35.302L12.188 34.916ZM11.936 35V34.5H11.036V35V35.5H11.936V35ZM11.036 35L11.5003 35.1856L14.9383 26.5876L14.474 26.402L14.0097 26.2164L10.5717 34.8144L11.036 35ZM14.474 26.402V26.902H15.65V26.402V25.902H14.474V26.402ZM15.65 26.402L15.1857 26.5876L18.6237 35.1856L19.088 35L19.5523 34.8144L16.1143 26.2164L15.65 26.402ZM20.9577 30.14L20.4592 30.1788L20.6081 32.0905L21.4116 30.3495L20.9577 30.14ZM21.6657 29.168L21.9847 29.553L21.9879 29.5503L21.6657 29.168ZM23.0577 28.856L22.9403 29.3421L22.944 29.3429L23.0577 28.856ZM23.3757 28.988L23.8733 29.0366L23.9028 28.7348L23.6488 28.5692L23.3757 28.988ZM23.2977 29.786L23.7838 29.9027L23.7919 29.8691L23.7953 29.8346L23.2977 29.786ZM22.8717 29.9L22.7632 30.3881L22.7632 30.3881L22.8717 29.9ZM21.9897 29.948L21.8168 29.4788L21.8127 29.4804L21.9897 29.948ZM21.5877 30.2L21.9284 30.5659L21.9288 30.5655L21.5877 30.2ZM21.2697 30.608L20.8381 30.3554L20.8362 30.3588L21.2697 30.608ZM21.0177 31.16L20.548 30.9884L20.5177 31.0715V31.16H21.0177ZM21.0177 35V35.5H21.5177V35H21.0177ZM19.9437 35H19.4437V35.5H19.9437V35ZM19.9437 28.922V28.422H19.4437V28.922H19.9437ZM20.7957 28.988L21.1492 28.6344L21.1492 28.6344L20.7957 28.988ZM20.8857 29.216L21.3841 29.1772L21.3828 29.1599L21.3803 29.1427L20.8857 29.216ZM20.9577 30.14L21.4116 30.3495C21.5802 29.9842 21.7752 29.7266 21.9847 29.553L21.6657 29.168L21.3466 28.783C20.9962 29.0734 20.7191 29.4638 20.5037 29.9305L20.9577 30.14ZM21.6657 29.168L21.9879 29.5503C22.1682 29.3983 22.3926 29.314 22.6917 29.314V28.814V28.314C22.1828 28.314 21.7231 28.4657 21.3434 28.7857L21.6657 29.168ZM22.6917 28.814V29.314C22.783 29.314 22.8654 29.324 22.9403 29.342L23.0577 28.856L23.175 28.37C23.0179 28.332 22.8563 28.314 22.6917 28.314V28.814ZM23.0577 28.856L22.944 29.3429C23.0142 29.3593 23.0649 29.3823 23.1025 29.4068L23.3757 28.988L23.6488 28.5692C23.5024 28.4737 23.3411 28.4087 23.1713 28.3691L23.0577 28.856ZM23.3757 28.988L22.878 28.9394L22.8 29.7374L23.2977 29.786L23.7953 29.8346L23.8733 29.0366L23.3757 28.988ZM23.2977 29.786L22.8115 29.6693C22.8167 29.6477 22.8391 29.5773 22.9146 29.5144C22.9936 29.4485 23.0764 29.436 23.1177 29.436V29.936V30.436C23.2549 30.436 23.4157 30.3985 23.5547 30.2826C23.6902 30.1697 23.7547 30.0243 23.7838 29.9027L23.2977 29.786ZM23.1177 29.936V29.436C23.1224 29.436 23.1138 29.4363 23.0866 29.4323C23.0609 29.4285 23.0259 29.4221 22.9801 29.4119L22.8717 29.9L22.7632 30.3881C22.8794 30.4139 23.005 30.436 23.1177 30.436V29.936ZM22.8717 29.9L22.9801 29.4119C22.8295 29.3784 22.6702 29.364 22.5057 29.364V29.864V30.364C22.6131 30.364 22.6978 30.3736 22.7632 30.3881L22.8717 29.9ZM22.5057 29.864V29.364C22.2653 29.364 22.0334 29.399 21.8168 29.4788L21.9897 29.948L22.1625 30.4172C22.25 30.385 22.362 30.364 22.5057 30.364V29.864ZM21.9897 29.948L21.8127 29.4804C21.6016 29.5602 21.4123 29.6798 21.2465 29.8345L21.5877 30.2L21.9288 30.5655C22.0031 30.4962 22.0817 30.4478 22.1666 30.4156L21.9897 29.948ZM21.5877 30.2L21.2469 29.8341C21.0891 29.981 20.954 30.1575 20.8381 30.3554L21.2697 30.608L21.7012 30.8606C21.7773 30.7305 21.8542 30.635 21.9284 30.5659L21.5877 30.2ZM21.2697 30.608L20.8362 30.3588C20.7275 30.5479 20.632 30.7587 20.548 30.9884L21.0177 31.16L21.4873 31.3316C21.5553 31.1453 21.6279 30.9881 21.7031 30.8572L21.2697 30.608ZM21.0177 31.16H20.5177V35H21.0177H21.5177V31.16H21.0177ZM21.0177 35V34.5H19.9437V35V35.5H21.0177V35ZM19.9437 35H20.4437V28.922H19.9437H19.4437V35H19.9437ZM19.9437 28.922V29.422H20.5557V28.922V28.422H19.9437V28.922ZM20.5557 28.922V29.422C20.5852 29.422 20.5866 29.4251 20.5701 29.4206C20.5534 29.416 20.4985 29.3979 20.4421 29.3416L20.7957 28.988L21.1492 28.6344C20.9577 28.4429 20.7013 28.422 20.5557 28.422V28.922ZM20.7957 28.988L20.4421 29.3416C20.4031 29.3025 20.3887 29.2683 20.3861 29.2616C20.3833 29.2545 20.3869 29.2613 20.3911 29.2893L20.8857 29.216L21.3803 29.1427C21.3591 28.9998 21.3077 28.793 21.1492 28.6344L20.7957 28.988ZM20.8857 29.216L20.3872 29.2548L20.4592 30.1788L20.9577 30.14L21.4561 30.1012L21.3841 29.1772L20.8857 29.216ZM29.9548 35V35.5H30.4548V35H29.9548ZM28.8867 35H28.3867V35.5H28.8867V35ZM28.8867 29.816H29.3867V29.316H28.8867V29.816ZM25.7548 29.816V29.316H25.2548V29.816H25.7548ZM25.9408 34.034L26.2943 33.6804V33.6804L25.9408 34.034ZM26.7087 34.178L26.874 34.6501L26.8867 34.6452L26.7087 34.178ZM26.9248 34.076L26.6675 33.6473V33.6473L26.9248 34.076ZM27.0747 33.98L27.3615 34.3897L27.3688 34.3844L27.0747 33.98ZM27.3388 34.034L27.7654 33.773L27.7585 33.7624L27.3388 34.034ZM27.6507 34.544L27.9922 34.9093L28.29 34.6309L28.0773 34.2831L27.6507 34.544ZM26.9848 34.952L27.158 35.4211L27.1642 35.4187L26.9848 34.952ZM25.0708 34.694L24.7092 35.0394L24.7119 35.0422L25.0708 34.694ZM24.6868 29.816H25.1868V29.316H24.6868V29.816ZM23.7928 29.762L23.4564 30.132L23.4661 30.1407L23.4761 30.149L23.7928 29.762ZM23.7268 29.156L23.6611 28.6603L23.2268 28.7179V29.156H23.7268ZM24.7227 29.024L24.7884 29.5197L25.1685 29.4693L25.2185 29.0891L24.7227 29.024ZM24.9688 27.152L24.4785 27.0539L24.4752 27.0703L24.473 27.0869L24.9688 27.152ZM25.0468 27.008L25.3812 27.3797L25.3831 27.378L25.0468 27.008ZM25.7548 26.948H26.2548V26.448H25.7548V26.948ZM25.7548 29.042H25.2548V29.542H25.7548V29.042ZM29.9548 29.042H30.4548V28.542H29.9548V29.042ZM30.1528 27.266L29.7016 27.0502L29.6976 27.0591L30.1528 27.266ZM29.9848 27.5L29.6414 27.1365L29.6362 27.1414L29.6312 27.1464L29.9848 27.5ZM29.1567 27.662L28.9498 28.1172L28.9574 28.1205L29.1567 27.662ZM28.9228 27.5L28.5692 27.8536L28.5692 27.8536L28.9228 27.5ZM28.7607 27.266L28.3022 27.4654L28.3056 27.4729L28.7607 27.266ZM28.7607 26.678L29.2193 26.8774L29.2223 26.8703L28.7607 26.678ZM28.9228 26.432L29.2763 26.7856L29.2814 26.7805L29.2863 26.7753L28.9228 26.432ZM29.1567 26.264L28.9574 25.8054L28.9498 25.8088L29.1567 26.264ZM29.9848 26.432L29.6212 26.7753L29.6311 26.7857L29.6414 26.7955L29.9848 26.432ZM30.1528 26.678L29.6912 26.8703L29.6961 26.8822L29.7017 26.8937L30.1528 26.678ZM29.9548 35V34.5H28.8867V35V35.5H29.9548V35ZM28.8867 35H29.3867V29.816H28.8867H28.3867V35H28.8867ZM28.8867 29.816V29.316H25.7548V29.816V30.316H28.8867V29.816ZM25.7548 29.816H25.2548V33.464H25.7548H26.2548V29.816H25.7548ZM25.7548 33.464H25.2548C25.2548 33.7917 25.3337 34.1341 25.5872 34.3876L25.9408 34.034L26.2943 33.6804C26.2941 33.6802 26.2924 33.6785 26.2896 33.6738C26.2866 33.6689 26.2818 33.6594 26.2766 33.6434C26.2658 33.6103 26.2548 33.5534 26.2548 33.464H25.7548ZM25.9408 34.034L25.5872 34.3876C25.8164 34.6167 26.1092 34.72 26.4207 34.72V34.22V33.72C26.3403 33.72 26.3131 33.6993 26.2943 33.6804L25.9408 34.034ZM26.4207 34.22V34.72C26.572 34.72 26.7269 34.7014 26.8739 34.6499L26.7087 34.178L26.5436 33.7061C26.5306 33.7106 26.4935 33.72 26.4207 33.72V34.22ZM26.7087 34.178L26.8867 34.6452C26.9909 34.6056 27.0908 34.5594 27.182 34.5047L26.9248 34.076L26.6675 33.6473C26.6387 33.6646 26.5946 33.6864 26.5308 33.7108L26.7087 34.178ZM26.9248 34.076L27.182 34.5047C27.2481 34.4651 27.3088 34.4265 27.3615 34.3896L27.0747 33.98L26.788 33.5704C26.7607 33.5895 26.7214 33.6149 26.6675 33.6473L26.9248 34.076ZM27.0747 33.98L27.3688 34.3844C27.3683 34.3847 27.3651 34.3871 27.3592 34.3905C27.3534 34.3939 27.3437 34.3992 27.3303 34.4048C27.3048 34.4155 27.2556 34.432 27.1887 34.432V33.932V33.432C26.9998 33.432 26.8563 33.5206 26.7807 33.5756L27.0747 33.98ZM27.1887 33.932V34.432C27.1084 34.432 27.0381 34.4056 26.9871 34.371C26.9416 34.34 26.9216 34.3097 26.919 34.3056L27.3388 34.034L27.7585 33.7624C27.6668 33.6206 27.4825 33.432 27.1887 33.432V33.932ZM27.3388 34.034L26.9122 34.2949L27.2242 34.8049L27.6507 34.544L28.0773 34.2831L27.7653 33.7731L27.3388 34.034ZM27.6507 34.544L27.3093 34.1787C27.177 34.3024 27.0116 34.406 26.8053 34.4853L26.9848 34.952L27.1642 35.4187C27.4779 35.298 27.7565 35.1296 27.9922 34.9093L27.6507 34.544ZM26.9848 34.952L26.8116 34.483C26.6068 34.5586 26.3974 34.596 26.1807 34.596V35.096V35.596C26.5161 35.596 26.8427 35.5374 27.1579 35.421L26.9848 34.952ZM26.1807 35.096V34.596C25.7954 34.596 25.5705 34.4911 25.4296 34.3458L25.0708 34.694L24.7119 35.0422C25.091 35.4329 25.6061 35.596 26.1807 35.596V35.096ZM25.0708 34.694L25.4323 34.3486C25.2931 34.2029 25.1868 33.9585 25.1868 33.536H24.6868H24.1868C24.1868 34.1215 24.3364 34.6491 24.7092 35.0394L25.0708 34.694ZM24.6868 33.536H25.1868V29.816H24.6868H24.1868V33.536H24.6868ZM24.6868 29.816V29.316H23.9548V29.816V30.316H24.6868V29.816ZM23.9548 29.816V29.316C23.9699 29.316 23.9945 29.3182 24.0244 29.3282C24.055 29.3384 24.0842 29.3545 24.1094 29.375L23.7928 29.762L23.4761 30.149C23.6207 30.2673 23.7907 30.316 23.9548 30.316V29.816ZM23.7928 29.762L24.1291 29.392C24.1712 29.4303 24.1981 29.475 24.2127 29.5149C24.2263 29.5519 24.2268 29.5775 24.2268 29.582H23.7268H23.2268C23.2268 29.752 23.2757 29.9677 23.4564 30.132L23.7928 29.762ZM23.7268 29.582H24.2268V29.156H23.7268H23.2268V29.582H23.7268ZM23.7268 29.156L23.7924 29.6517L24.7884 29.5197L24.7227 29.024L24.6571 28.5283L23.6611 28.6603L23.7268 29.156ZM24.7227 29.024L25.2185 29.0891L25.4645 27.2171L24.9688 27.152L24.473 27.0869L24.227 28.9589L24.7227 29.024ZM24.9688 27.152L25.459 27.2501C25.4564 27.2632 25.4504 27.2843 25.4369 27.3091C25.4231 27.3346 25.4043 27.3589 25.3812 27.3796L25.0468 27.008L24.7123 26.6364C24.5815 26.7541 24.5086 26.9035 24.4785 27.0539L24.9688 27.152ZM25.0468 27.008L25.3831 27.378C25.3562 27.4024 25.3241 27.4217 25.2899 27.4339C25.2568 27.4457 25.23 27.448 25.2148 27.448V26.948V26.448C25.0415 26.448 24.8597 26.5023 24.7104 26.638L25.0468 27.008ZM25.2148 26.948V27.448H25.7548V26.948V26.448H25.2148V26.948ZM25.7548 26.948H25.2548V29.042H25.7548H26.2548V26.948H25.7548ZM25.7548 29.042V29.542H29.9548V29.042V28.542H25.7548V29.042ZM29.9548 29.042H29.4548V35H29.9548H30.4548V29.042H29.9548ZM30.2188 26.972H29.7188C29.7188 27.0029 29.7128 27.027 29.7017 27.0503L30.1528 27.266L30.6038 27.4817C30.6807 27.321 30.7188 27.1491 30.7188 26.972H30.2188ZM30.1528 27.266L29.6976 27.0591C29.685 27.0867 29.6675 27.1118 29.6414 27.1365L29.9848 27.5L30.3281 27.8635C30.446 27.7522 30.5405 27.6213 30.6079 27.4729L30.1528 27.266ZM29.9848 27.5L29.6312 27.1464C29.6095 27.1682 29.5824 27.1874 29.5454 27.2035L29.7448 27.662L29.9441 28.1205C30.0911 28.0566 30.224 27.9678 30.3383 27.8536L29.9848 27.5ZM29.7448 27.662L29.5454 27.2035C29.5186 27.2151 29.4887 27.222 29.4508 27.222V27.722V28.222C29.6208 28.222 29.7869 28.1889 29.9441 28.1205L29.7448 27.662ZM29.4508 27.722V27.222C29.4128 27.222 29.3829 27.2151 29.3561 27.2035L29.1567 27.662L28.9574 28.1205C29.1146 28.1889 29.2807 28.222 29.4508 28.222V27.722ZM29.1567 27.662L29.3637 27.2068C29.3299 27.1915 29.3017 27.1718 29.2763 27.1464L28.9228 27.5L28.5692 27.8536C28.6798 27.9642 28.8076 28.0525 28.9498 28.1172L29.1567 27.662ZM28.9228 27.5L29.2763 27.1464C29.2509 27.1211 29.2313 27.0928 29.2159 27.0591L28.7607 27.266L28.3056 27.4729C28.3702 27.6152 28.4586 27.7429 28.5692 27.8536L28.9228 27.5ZM28.7607 27.266L29.2193 27.0666C29.2076 27.0399 29.2008 27.01 29.2008 26.972H28.7008H28.2008C28.2008 27.142 28.2339 27.3081 28.3022 27.4654L28.7607 27.266ZM28.7008 26.972H29.2008C29.2008 26.934 29.2076 26.9041 29.2193 26.8774L28.7607 26.678L28.3022 26.4786C28.2339 26.6359 28.2008 26.802 28.2008 26.972H28.7008ZM28.7607 26.678L29.2223 26.8703C29.2392 26.8296 29.2581 26.8037 29.2763 26.7856L28.9228 26.432L28.5692 26.0784C28.4514 26.1963 28.3623 26.3344 28.2992 26.4857L28.7607 26.678ZM28.9228 26.432L29.2863 26.7753C29.3109 26.7492 29.3361 26.7317 29.3637 26.7192L29.1567 26.264L28.9498 25.8088C28.8014 25.8763 28.6706 25.9708 28.5592 26.0887L28.9228 26.432ZM29.1567 26.264L29.3561 26.7225C29.3829 26.7109 29.4128 26.704 29.4508 26.704V26.204V25.704C29.2807 25.704 29.1146 25.7371 28.9574 25.8055L29.1567 26.264ZM29.4508 26.204V26.704C29.4887 26.704 29.5186 26.7109 29.5454 26.7225L29.7448 26.264L29.9441 25.8055C29.7869 25.7371 29.6208 25.704 29.4508 25.704V26.204ZM29.7448 26.264L29.5454 26.7225C29.5763 26.736 29.6002 26.7531 29.6212 26.7753L29.9848 26.432L30.3483 26.0887C30.2333 25.9669 30.0972 25.872 29.9441 25.8055L29.7448 26.264ZM29.9848 26.432L29.6414 26.7955C29.6599 26.813 29.6768 26.8357 29.6912 26.8703L30.1528 26.678L30.6143 26.4857C30.5487 26.3283 30.4536 26.187 30.3281 26.0685L29.9848 26.432ZM30.1528 26.678L29.7017 26.8937C29.7128 26.917 29.7188 26.9411 29.7188 26.972H30.2188H30.7188C30.7188 26.7949 30.6807 26.623 30.6038 26.4623L30.1528 26.678ZM35.2493 29.924L34.8235 29.662L34.8166 29.6731L34.8103 29.6846L35.2493 29.924ZM34.5413 29.846L34.3111 30.2899L34.3208 30.2949L34.3307 30.2995L34.5413 29.846ZM34.1513 29.696L34.0007 30.1729L34.0123 30.1763L34.1513 29.696ZM33.1253 29.696L33.2714 30.1743L33.2834 30.1703L33.1253 29.696ZM32.7533 29.882L32.4484 29.4856L32.4409 29.4916L32.7533 29.882ZM32.5193 30.164L32.0754 29.9338L32.0721 29.9404L32.5193 30.164ZM32.5733 30.896L32.1915 31.219L32.1988 31.2273L32.5733 30.896ZM32.9333 31.166L33.1617 30.7212V30.7212L32.9333 31.166ZM33.4373 31.37L33.2852 31.8464L33.2945 31.8492L33.4373 31.37ZM34.0133 31.556L33.8493 32.0285L33.8609 32.0322L34.0133 31.556ZM34.5953 31.772L34.7911 31.3119V31.3119L34.5953 31.772ZM35.0993 32.072L35.4142 31.6836V31.6836L35.0993 32.072ZM35.4533 32.516L35.0059 32.7397L35.0124 32.7518L35.4533 32.516ZM35.4413 33.92L35.9017 34.1151L35.9028 34.1123L35.4413 33.92ZM34.9973 34.538L35.3271 34.9138L35.3313 34.91L34.9973 34.538ZM34.2773 34.946L34.1112 34.4744V34.4744L34.2773 34.946ZM32.1413 34.892L31.9528 35.3551L31.9575 35.357L32.1413 34.892ZM31.2653 34.358L30.8399 34.0953L30.6205 34.4504L30.9308 34.7296L31.2653 34.358ZM31.5173 33.95L31.9427 34.2127L31.9431 34.212L31.5173 33.95ZM31.6313 33.83L31.3628 33.4082V33.4082L31.6313 33.83ZM32.0273 33.872L31.7406 34.2816V34.2816L32.0273 33.872ZM32.3153 34.058L32.0558 34.4854L32.0624 34.4893L32.3153 34.058ZM32.7353 34.244L32.5737 34.7172V34.7172L32.7353 34.244ZM33.8933 34.25L34.0514 34.7245L34.0622 34.7206L33.8933 34.25ZM34.2833 34.028L34.6146 34.4025V34.4025L34.2833 34.028ZM34.5113 33.71L34.0525 33.5112L34.0497 33.5177L34.047 33.5243L34.5113 33.71ZM34.4513 32.912L34.0581 33.2209L34.0642 33.2287L34.0707 33.2362L34.4513 32.912ZM34.0973 32.63L33.8595 33.07L33.8689 33.0748L34.0973 32.63ZM33.5873 32.426L33.4352 32.9025L33.4473 32.906L33.5873 32.426ZM33.0053 32.24L32.8501 32.7153L32.8529 32.7162L33.0053 32.24ZM32.4233 32.024L32.2192 32.4807L32.231 32.4855L32.4233 32.024ZM31.5593 31.256L31.1081 31.4718L31.1141 31.4836L31.5593 31.256ZM31.5713 29.924L32.0268 30.1303L32.0282 30.1271L31.5713 29.924ZM31.9913 29.36L32.3194 29.7373L32.324 29.7333L31.9913 29.36ZM32.6693 28.97L32.8379 29.4407V29.4407L32.6693 28.97ZM34.6613 29.018L34.4735 29.4815L34.4806 29.4842L34.6613 29.018ZM35.4893 29.534L35.9151 29.796L36.1278 29.4504L35.8333 29.1712L35.4893 29.534ZM35.2493 29.924L34.8103 29.6846C34.8221 29.6629 34.8502 29.6241 34.9022 29.5932C34.9543 29.5623 35.0021 29.556 35.0273 29.556V30.056V30.556C35.1525 30.556 35.2873 30.5277 35.4133 30.4528C35.5393 30.3779 35.6284 30.2731 35.6882 30.1634L35.2493 29.924ZM35.0273 30.056V29.556C35.0584 29.556 35.0787 29.5617 35.0852 29.5638C35.0914 29.5658 35.0879 29.5654 35.0738 29.5573L34.8233 29.99L34.5728 30.4227C34.6919 30.4917 34.8477 30.556 35.0273 30.556V30.056ZM34.8233 29.99L35.0738 29.5573C34.9808 29.5034 34.8725 29.4485 34.7518 29.3925L34.5413 29.846L34.3307 30.2995C34.4341 30.3475 34.5138 30.3886 34.5728 30.4227L34.8233 29.99ZM34.5413 29.846L34.7714 29.4021C34.6272 29.3273 34.465 29.2663 34.2903 29.2157L34.1513 29.696L34.0123 30.1763C34.1416 30.2137 34.2394 30.2527 34.3111 30.2899L34.5413 29.846ZM34.1513 29.696L34.3018 29.2192C34.0889 29.152 33.8557 29.124 33.6113 29.124V29.624V30.124C33.7829 30.124 33.9097 30.144 34.0007 30.1728L34.1513 29.696ZM33.6113 29.624V29.124C33.3873 29.124 33.1706 29.1538 32.9672 29.2217L33.1253 29.696L33.2834 30.1703C33.3679 30.1422 33.4753 30.124 33.6113 30.124V29.624ZM33.1253 29.696L32.9792 29.2178C32.7861 29.2768 32.6065 29.3641 32.4484 29.4857L32.7533 29.882L33.0581 30.2783C33.1081 30.2399 33.1764 30.2032 33.2714 30.1742L33.1253 29.696ZM32.7533 29.882L32.4409 29.4916C32.2893 29.6129 32.1653 29.7606 32.0754 29.9338L32.5193 30.164L32.9632 30.3942C32.9853 30.3514 33.0173 30.3111 33.0656 30.2724L32.7533 29.882ZM32.5193 30.164L32.0721 29.9404C31.9831 30.1184 31.9413 30.3097 31.9413 30.506H32.4413H32.9413C32.9413 30.4543 32.9515 30.4176 32.9665 30.3876L32.5193 30.164ZM32.4413 30.506H31.9413C31.9413 30.7621 32.0162 31.0117 32.1916 31.219L32.5733 30.896L32.955 30.573C32.9543 30.5723 32.9413 30.5619 32.9413 30.506H32.4413ZM32.5733 30.896L32.1988 31.2273C32.3393 31.3861 32.5122 31.5119 32.7049 31.6108L32.9333 31.166L33.1617 30.7212C33.0583 30.6681 32.9913 30.6139 32.9478 30.5647L32.5733 30.896ZM32.9333 31.166L32.7049 31.6108C32.8814 31.7015 33.0757 31.7794 33.2853 31.8463L33.4373 31.37L33.5893 30.8937C33.4229 30.8406 33.2811 30.7825 33.1617 30.7212L32.9333 31.166ZM33.4373 31.37L33.2945 31.8492C33.4751 31.903 33.66 31.9627 33.8494 32.0284L34.0133 31.556L34.1772 31.0836C33.9746 31.0133 33.7755 30.949 33.58 30.8908L33.4373 31.37ZM34.0133 31.556L33.8609 32.0322C34.0466 32.0916 34.2261 32.1583 34.3995 32.2321L34.5953 31.772L34.7911 31.3119C34.5885 31.2257 34.38 31.1484 34.1657 31.0798L34.0133 31.556ZM34.5953 31.772L34.3995 32.2321C34.5477 32.2952 34.6751 32.3717 34.7844 32.4604L35.0993 32.072L35.4142 31.6836C35.2275 31.5323 35.0188 31.4088 34.7911 31.3119L34.5953 31.772ZM35.0993 32.072L34.7844 32.4604C34.8752 32.534 34.9489 32.6252 35.0061 32.7396L35.4533 32.516L35.9005 32.2924C35.7817 32.0548 35.6194 31.85 35.4142 31.6836L35.0993 32.072ZM35.4533 32.516L35.0124 32.7518C35.057 32.8353 35.0913 32.958 35.0913 33.14H35.5913H36.0913C36.0913 32.834 36.0335 32.5407 35.8942 32.2802L35.4533 32.516ZM35.5913 33.14H35.0913C35.0913 33.3591 35.0525 33.5532 34.9797 33.7277L35.4413 33.92L35.9028 34.1123C36.0301 33.8068 36.0913 33.4809 36.0913 33.14H35.5913ZM35.4413 33.92L34.9809 33.7249C34.9103 33.8915 34.8062 34.0376 34.6632 34.166L34.9973 34.538L35.3313 34.91C35.5804 34.6864 35.7722 34.4205 35.9017 34.1151L35.4413 33.92ZM34.9973 34.538L34.6675 34.1622C34.5263 34.2861 34.3442 34.3923 34.1112 34.4744L34.2773 34.946L34.4433 35.4176C34.7783 35.2997 35.0763 35.1339 35.3271 34.9138L34.9973 34.538ZM34.2773 34.946L34.1112 34.4744C33.8914 34.5518 33.6215 34.596 33.2933 34.596V35.096V35.596C33.709 35.596 34.0951 35.5402 34.4433 35.4176L34.2773 34.946ZM33.2933 35.096V34.596C32.9231 34.596 32.6027 34.5368 32.3251 34.427L32.1413 34.892L31.9575 35.357C32.3679 35.5192 32.8155 35.596 33.2933 35.596V35.096ZM32.1413 34.892L32.3298 34.4289C32.0314 34.3075 31.7908 34.1583 31.5998 33.9864L31.2653 34.358L30.9308 34.7296C31.2197 34.9897 31.5631 35.1965 31.9528 35.3551L32.1413 34.892ZM31.2653 34.358L31.6907 34.6207L31.9427 34.2127L31.5173 33.95L31.0919 33.6873L30.8399 34.0953L31.2653 34.358ZM31.5173 33.95L31.9431 34.212C31.9422 34.2136 31.9296 34.2328 31.8997 34.2518L31.6313 33.83L31.3628 33.4082C31.2449 33.4832 31.1564 33.5824 31.0915 33.688L31.5173 33.95ZM31.6313 33.83L31.8997 34.2518C31.8718 34.2696 31.8462 34.2789 31.8275 34.2836C31.8185 34.2858 31.8113 34.2869 31.8066 34.2875C31.8019 34.288 31.7994 34.288 31.7993 34.288V33.788V33.288C31.6646 33.288 31.5081 33.3158 31.3628 33.4082L31.6313 33.83ZM31.7993 33.788V34.288C31.7379 34.288 31.7153 34.2639 31.7406 34.2816L32.0273 33.872L32.314 33.4624C32.1793 33.3681 32.0046 33.288 31.7993 33.288V33.788ZM32.0273 33.872L31.7406 34.2816C31.8318 34.3455 31.9374 34.4135 32.0558 34.4854L32.3153 34.058L32.5748 33.6306C32.4691 33.5665 32.3827 33.5105 32.314 33.4624L32.0273 33.872ZM32.3153 34.058L32.0624 34.4893C32.2143 34.5784 32.3865 34.6533 32.5737 34.7172L32.7353 34.244L32.8969 33.7708C32.756 33.7227 32.6483 33.6736 32.5681 33.6267L32.3153 34.058ZM32.7353 34.244L32.5737 34.7172C32.8062 34.7966 33.0689 34.828 33.3473 34.828V34.328V33.828C33.1376 33.828 32.9924 33.8034 32.8969 33.7708L32.7353 34.244ZM33.3473 34.328V34.828C33.5955 34.828 33.833 34.7972 34.0514 34.7243L33.8933 34.25L33.7352 33.7757C33.6416 33.8068 33.5151 33.828 33.3473 33.828V34.328ZM33.8933 34.25L34.0622 34.7206C34.2666 34.6472 34.4548 34.5438 34.6146 34.4025L34.2833 34.028L33.952 33.6535C33.9038 33.6962 33.8319 33.7408 33.7243 33.7794L33.8933 34.25ZM34.2833 34.028L34.6146 34.4025C34.7726 34.2627 34.8964 34.0935 34.9755 33.8957L34.5113 33.71L34.047 33.5243C34.0301 33.5665 34.002 33.6093 33.952 33.6535L34.2833 34.028ZM34.5113 33.71L34.9701 33.9088C35.0503 33.7235 35.0893 33.5276 35.0893 33.326H34.5893H34.0893C34.0893 33.3964 34.0762 33.4565 34.0525 33.5112L34.5113 33.71ZM34.5893 33.326H35.0893C35.0893 33.0621 35.0147 32.8023 34.8319 32.5878L34.4513 32.912L34.0707 33.2362C34.0719 33.2377 34.0893 33.2539 34.0893 33.326H34.5893ZM34.4513 32.912L34.8444 32.6031C34.7051 32.4257 34.5271 32.2886 34.3257 32.1852L34.0973 32.63L33.8689 33.0748C33.9635 33.1234 34.0215 33.1743 34.0581 33.2209L34.4513 32.912ZM34.0973 32.63L34.335 32.1901C34.1508 32.0906 33.947 32.0101 33.7273 31.946L33.5873 32.426L33.4473 32.906C33.6115 32.9539 33.7478 33.0094 33.8595 33.0699L34.0973 32.63ZM33.5873 32.426L33.7393 31.9497C33.5514 31.8897 33.3576 31.8278 33.1577 31.7638L33.0053 32.24L32.8529 32.7162C33.053 32.7802 33.2471 32.8423 33.4353 32.9023L33.5873 32.426ZM33.0053 32.24L33.1605 31.7647C32.9771 31.7048 32.7955 31.6374 32.6156 31.5625L32.4233 32.024L32.231 32.4855C32.435 32.5706 32.6414 32.6472 32.8501 32.7153L33.0053 32.24ZM32.4233 32.024L32.6273 31.5675C32.4787 31.5011 32.3506 31.4211 32.2404 31.3287L31.9193 31.712L31.5982 32.0953C31.7839 32.2509 31.9919 32.3789 32.2193 32.4805L32.4233 32.024ZM31.9193 31.712L32.2404 31.3287C32.1462 31.2498 32.0674 31.1516 32.0045 31.0284L31.5593 31.256L31.1141 31.4836C31.2351 31.7204 31.3964 31.9262 31.5982 32.0953L31.9193 31.712ZM31.5593 31.256L32.0103 31.0403C31.9622 30.9395 31.9273 30.7952 31.9273 30.59H31.4273H30.9273C30.9273 30.9048 30.9804 31.2045 31.1082 31.4717L31.5593 31.256ZM31.4273 30.59H31.9273C31.9273 30.4294 31.96 30.2777 32.0268 30.1303L31.5713 29.924L31.1158 29.7177C30.9906 29.9943 30.9273 30.2866 30.9273 30.59H31.4273ZM31.5713 29.924L32.0282 30.1271C32.0936 29.98 32.1887 29.8509 32.3194 29.7373L31.9913 29.36L31.6632 28.9827C31.4258 29.1891 31.241 29.436 31.1144 29.7209L31.5713 29.924ZM31.9913 29.36L32.324 29.7333C32.4532 29.6181 32.6211 29.5184 32.8379 29.4407L32.6693 28.97L32.5007 28.4993C32.1815 28.6136 31.8974 28.7739 31.6586 28.9867L31.9913 29.36ZM32.6693 28.97L32.8379 29.4407C33.0418 29.3677 33.2891 29.326 33.5873 29.326V28.826V28.326C33.1974 28.326 32.8327 28.3803 32.5007 28.4993L32.6693 28.97ZM33.5873 28.826V29.326C33.9339 29.326 34.2266 29.3814 34.4736 29.4814L34.6613 29.018L34.849 28.5546C34.464 28.3986 34.0407 28.326 33.5873 28.326V28.826ZM34.6613 29.018L34.4806 29.4842C34.7444 29.5865 34.9638 29.7248 35.1452 29.8968L35.4893 29.534L35.8333 29.1712C35.5507 28.9032 35.2181 28.6975 34.8419 28.5518L34.6613 29.018ZM35.4893 29.534L35.0635 29.272L34.8235 29.662L35.2493 29.924L35.6751 30.186L35.9151 29.796L35.4893 29.534ZM37.6567 34.694L37.2951 35.0394L37.2978 35.0422L37.6567 34.694ZM37.2727 29.816H37.7727V29.316H37.2727V29.816ZM36.3787 29.762L36.0424 30.132L36.052 30.1407L36.0621 30.149L36.3787 29.762ZM36.3127 29.156L36.2499 28.66L35.8127 28.7153V29.156H36.3127ZM37.3087 29.03L37.3714 29.526L37.7543 29.4776L37.8045 29.0949L37.3087 29.03ZM37.5547 27.152L37.0644 27.0539L37.0611 27.0704L37.0589 27.0871L37.5547 27.152ZM37.6327 27.008L37.9672 27.3797L37.969 27.378L37.6327 27.008ZM38.3407 26.948H38.8407V26.448H38.3407V26.948ZM38.3407 29.042H37.8407V29.542H38.3407V29.042ZM40.0987 29.042H40.5987V28.542H40.0987V29.042ZM40.0987 29.816V30.316H40.5987V29.816H40.0987ZM38.3407 29.816V29.316H37.8407V29.816H38.3407ZM38.5267 34.034L38.8802 33.6804V33.6804L38.5267 34.034ZM39.2947 34.178L39.4599 34.6501L39.4727 34.6452L39.2947 34.178ZM39.5107 34.076L39.2534 33.6473L39.2534 33.6473L39.5107 34.076ZM39.6607 33.98L39.9475 34.3897L39.9548 34.3844L39.6607 33.98ZM39.9247 34.034L40.3513 33.773L40.3445 33.7624L39.9247 34.034ZM40.2367 34.544L40.5781 34.9093L40.876 34.6309L40.6632 34.2831L40.2367 34.544ZM39.5707 34.952L39.7439 35.4211L39.7502 35.4187L39.5707 34.952ZM38.7667 35.096V34.596C38.3813 34.596 38.1564 34.4911 38.0156 34.3458L37.6567 34.694L37.2978 35.0422C37.6769 35.4329 38.192 35.596 38.7667 35.596V35.096ZM37.6567 34.694L38.0182 34.3486C37.8791 34.2029 37.7727 33.9585 37.7727 33.536H37.2727H36.7727C36.7727 34.1215 36.9223 34.6491 37.2951 35.0394L37.6567 34.694ZM37.2727 33.536H37.7727V29.816H37.2727H36.7727V33.536H37.2727ZM37.2727 29.816V29.316H36.5407V29.816V30.316H37.2727V29.816ZM36.5407 29.816V29.316C36.5558 29.316 36.5804 29.3182 36.6103 29.3282C36.6409 29.3384 36.6702 29.3545 36.6953 29.375L36.3787 29.762L36.0621 30.149C36.2066 30.2673 36.3767 30.316 36.5407 30.316V29.816ZM36.3787 29.762L36.715 29.392C36.7571 29.4303 36.784 29.475 36.7986 29.5149C36.8122 29.5519 36.8127 29.5775 36.8127 29.582H36.3127H35.8127C35.8127 29.752 35.8616 29.9677 36.0424 30.132L36.3787 29.762ZM36.3127 29.582H36.8127V29.156H36.3127H35.8127V29.582H36.3127ZM36.3127 29.156L36.3754 29.652L37.3714 29.526L37.3087 29.03L37.2459 28.534L36.2499 28.66L36.3127 29.156ZM37.3087 29.03L37.8045 29.0949L38.0505 27.2169L37.5547 27.152L37.0589 27.0871L36.8129 28.9651L37.3087 29.03ZM37.5547 27.152L38.045 27.2501C38.0424 27.2632 38.0363 27.2843 38.0228 27.3091C38.0091 27.3346 37.9902 27.3589 37.9672 27.3796L37.6327 27.008L37.2982 26.6364C37.1674 26.7541 37.0945 26.9035 37.0644 27.0539L37.5547 27.152ZM37.6327 27.008L37.969 27.378C37.9422 27.4024 37.91 27.4217 37.8759 27.4339C37.8427 27.4457 37.8159 27.448 37.8007 27.448V26.948V26.448C37.6274 26.448 37.4456 26.5023 37.2964 26.638L37.6327 27.008ZM37.8007 26.948V27.448H38.3407V26.948V26.448H37.8007V26.948ZM38.3407 26.948H37.8407V29.042H38.3407H38.8407V26.948H38.3407ZM38.3407 29.042V29.542H40.0987V29.042V28.542H38.3407V29.042ZM40.0987 29.042H39.5987V29.816H40.0987H40.5987V29.042H40.0987ZM40.0987 29.816V29.316H38.3407V29.816V30.316H40.0987V29.816ZM38.3407 29.816H37.8407V33.464H38.3407H38.8407V29.816H38.3407ZM38.3407 33.464H37.8407C37.8407 33.7917 37.9197 34.1341 38.1731 34.3876L38.5267 34.034L38.8802 33.6804C38.88 33.6802 38.8783 33.6785 38.8755 33.6738C38.8726 33.6689 38.8677 33.6594 38.8625 33.6434C38.8517 33.6103 38.8407 33.5534 38.8407 33.464H38.3407ZM38.5267 34.034L38.1731 34.3876C38.4023 34.6167 38.6951 34.72 39.0067 34.72V34.22V33.72C38.9262 33.72 38.8991 33.6993 38.8802 33.6804L38.5267 34.034ZM39.0067 34.22V34.72C39.1579 34.72 39.3128 34.7014 39.4599 34.6499L39.2947 34.178L39.1295 33.7061C39.1166 33.7106 39.0795 33.72 39.0067 33.72V34.22ZM39.2947 34.178L39.4727 34.6452C39.5769 34.6056 39.6768 34.5594 39.7679 34.5047L39.5107 34.076L39.2534 33.6473C39.2246 33.6646 39.1805 33.6864 39.1167 33.7108L39.2947 34.178ZM39.5107 34.076L39.7679 34.5047C39.8341 34.4651 39.8947 34.4265 39.9474 34.3896L39.6607 33.98L39.374 33.5704C39.3467 33.5895 39.3073 33.6149 39.2534 33.6473L39.5107 34.076ZM39.6607 33.98L39.9548 34.3844C39.9543 34.3847 39.951 34.3871 39.9452 34.3905C39.9393 34.3939 39.9296 34.3992 39.9162 34.4048C39.8908 34.4155 39.8415 34.432 39.7747 34.432V33.932V33.432C39.5857 33.432 39.4423 33.5206 39.3666 33.5756L39.6607 33.98ZM39.7747 33.932V34.432C39.6943 34.432 39.624 34.4056 39.573 34.371C39.5275 34.34 39.5075 34.3097 39.5049 34.3056L39.9247 34.034L40.3445 33.7624C40.2528 33.6206 40.0684 33.432 39.7747 33.432V33.932ZM39.9247 34.034L39.4982 34.2949L39.8102 34.8049L40.2367 34.544L40.6632 34.2831L40.3512 33.7731L39.9247 34.034ZM40.2367 34.544L39.8952 34.1787C39.7629 34.3024 39.5976 34.406 39.3912 34.4853L39.5707 34.952L39.7502 35.4187C40.0638 35.298 40.3424 35.1296 40.5781 34.9093L40.2367 34.544ZM39.5707 34.952L39.3975 34.483C39.1927 34.5586 38.9833 34.596 38.7667 34.596V35.096V35.596C39.102 35.596 39.4287 35.5374 39.7439 35.421L39.5707 34.952ZM45.2343 31.298V31.798H45.7343V31.298H45.2343ZM45.1263 30.62L44.6509 30.7754L44.6548 30.7864L45.1263 30.62ZM44.8203 30.086L44.4426 30.414L44.4521 30.4243L44.8203 30.086ZM44.3343 29.738L44.1339 30.1961L44.142 30.1995L44.3343 29.738ZM42.4623 30.062L42.8159 30.4156V30.4156L42.4623 30.062ZM41.9103 31.298L41.4149 31.2304L41.3375 31.798H41.9103V31.298ZM46.0983 34.148L46.484 34.4662L46.7375 34.1589L46.4946 33.8431L46.0983 34.148ZM45.6243 34.568L45.891 34.991L45.8974 34.9868L45.6243 34.568ZM45.0303 34.856L44.8616 34.3853L44.8587 34.3864L45.0303 34.856ZM44.3823 35.024L44.303 34.5303L44.2944 34.5318L44.3823 35.024ZM42.5523 34.874L42.363 35.3368L42.3693 35.3393L42.5523 34.874ZM41.6343 34.25L41.2677 34.5901L41.2729 34.5955L41.6343 34.25ZM41.0103 30.65L40.5397 30.4812L40.5381 30.4857L41.0103 30.65ZM41.5743 29.696L41.944 30.0326L41.9465 30.0299L41.5743 29.696ZM42.4683 29.06L42.6665 29.5191L42.6709 29.5171L42.4683 29.06ZM44.6643 29.012L44.4776 29.4759L44.4848 29.4787L44.6643 29.012ZM45.4683 29.54L45.1086 29.8874L45.1148 29.8936L45.4683 29.54ZM46.0023 30.392L45.5344 30.5682L45.5351 30.57L46.0023 30.392ZM41.8743 31.964V31.464H41.3584L41.3746 31.9796L41.8743 31.964ZM42.0303 32.966L41.5546 33.1201L41.5566 33.1261L42.0303 32.966ZM42.4263 33.68L42.05 34.0093L42.0535 34.0132L42.4263 33.68ZM43.0263 34.106L42.8351 34.5681L42.842 34.5708L43.0263 34.106ZM44.4963 34.154L44.6455 34.6313L44.6515 34.6293L44.4963 34.154ZM45.0003 33.95L44.7716 33.5054V33.5054L45.0003 33.95ZM45.3483 33.752L45.6215 34.1708L45.6257 34.168L45.3483 33.752ZM45.7983 33.758L45.3898 34.0463L45.3957 34.0547L45.402 34.0629L45.7983 33.758ZM45.2343 31.298H45.7343C45.7343 31.0015 45.6912 30.7182 45.5978 30.4536L45.1263 30.62L44.6548 30.7864C44.7054 30.9298 44.7343 31.0985 44.7343 31.298H45.2343ZM45.1263 30.62L45.6016 30.4646C45.5133 30.1948 45.377 29.9528 45.1885 29.7477L44.8203 30.086L44.4521 30.4243C44.5356 30.5152 44.6033 30.6292 44.6511 30.7754L45.1263 30.62ZM44.8203 30.086L45.1978 29.7582C45.0135 29.5459 44.7874 29.3851 44.5266 29.2765L44.3343 29.738L44.142 30.1995C44.2652 30.2509 44.3631 30.3221 44.4428 30.4138L44.8203 30.086ZM44.3343 29.738L44.5347 29.2799C44.27 29.1641 43.9821 29.112 43.6803 29.112V29.612V30.112C43.8666 30.112 44.0146 30.1439 44.1339 30.1961L44.3343 29.738ZM43.6803 29.612V29.112C43.065 29.112 42.5214 29.2958 42.1088 29.7084L42.4623 30.062L42.8159 30.4156C43.0032 30.2282 43.2716 30.112 43.6803 30.112V29.612ZM42.4623 30.062L42.1088 29.7084C41.7166 30.1006 41.4976 30.624 41.4149 31.2304L41.9103 31.298L42.4057 31.3656C42.467 30.916 42.616 30.6154 42.8159 30.4156L42.4623 30.062ZM41.9103 31.298V31.798H45.2343V31.298V30.798H41.9103V31.298ZM46.0983 34.148L45.7126 33.8298C45.6147 33.9485 45.4953 34.0552 45.3512 34.1492L45.6243 34.568L45.8974 34.9868C46.1213 34.8408 46.3179 34.6675 46.484 34.4662L46.0983 34.148ZM45.6243 34.568L45.3577 34.145C45.2055 34.2409 45.0405 34.3212 44.8616 34.3853L45.0303 34.856L45.199 35.3267C45.4441 35.2388 45.6751 35.1271 45.891 34.991L45.6243 34.568ZM45.0303 34.856L44.8587 34.3864C44.6814 34.4512 44.4963 34.4993 44.303 34.5303L44.3823 35.024L44.4617 35.5177C44.7163 35.4767 44.9633 35.4128 45.2019 35.3256L45.0303 34.856ZM44.3823 35.024L44.2944 34.5318C44.0984 34.5668 43.9059 34.584 43.7163 34.584V35.084V35.584C43.9668 35.584 44.2182 35.5612 44.4702 35.5162L44.3823 35.024ZM43.7163 35.084V34.584C43.3528 34.584 43.0276 34.5236 42.7353 34.4087L42.5523 34.874L42.3693 35.3393C42.7891 35.5044 43.2398 35.584 43.7163 35.584V35.084ZM42.5523 34.874L42.7416 34.4112C42.4539 34.2935 42.2067 34.1252 41.9957 33.9045L41.6343 34.25L41.2729 34.5955C41.5819 34.9188 41.9467 35.1665 42.363 35.3368L42.5523 34.874ZM41.6343 34.25L42.0009 33.91C41.797 33.6902 41.6297 33.4111 41.5053 33.0621L41.0343 33.23L40.5633 33.3979C40.7269 33.8569 40.9596 34.2578 41.2677 34.59L41.6343 34.25ZM41.0343 33.23L41.5053 33.0621C41.3842 32.7225 41.3183 32.317 41.3183 31.838H40.8183H40.3183C40.3183 32.407 40.3964 32.9295 40.5633 33.3979L41.0343 33.23ZM40.8183 31.838H41.3183C41.3183 31.465 41.3745 31.125 41.4826 30.8143L41.0103 30.65L40.5381 30.4857C40.3901 30.911 40.3183 31.363 40.3183 31.838H40.8183ZM41.0103 30.65L41.481 30.8188C41.5925 30.5079 41.7478 30.2481 41.944 30.0326L41.5743 29.696L41.2046 29.3594C40.9128 29.6799 40.6922 30.0561 40.5397 30.4812L41.0103 30.65ZM41.5743 29.696L41.9465 30.0299C42.1399 29.8143 42.3775 29.6438 42.6665 29.519L42.4683 29.06L42.2701 28.601C41.8551 28.7802 41.4968 29.0337 41.2021 29.3621L41.5743 29.696ZM42.4683 29.06L42.6709 29.5171C42.9506 29.3932 43.2762 29.326 43.6563 29.326V28.826V28.326C43.1565 28.326 42.69 28.4148 42.2657 28.6029L42.4683 29.06ZM43.6563 28.826V29.326C43.9625 29.326 44.2344 29.3779 44.4776 29.4758L44.6643 29.012L44.851 28.5482C44.4782 28.3981 44.0781 28.326 43.6563 28.326V28.826ZM44.6643 29.012L44.4848 29.4787C44.7313 29.5735 44.9371 29.7097 45.1086 29.8873L45.4683 29.54L45.828 29.1927C45.5515 28.9063 45.2213 28.6905 44.8438 28.5453L44.6643 29.012ZM45.4683 29.54L45.1148 29.8936C45.2864 30.0652 45.4283 30.2863 45.5344 30.5682L46.0023 30.392L46.4702 30.2158C46.3204 29.8177 46.1062 29.4708 45.8219 29.1864L45.4683 29.54ZM46.0023 30.392L45.5351 30.57C45.6375 30.839 45.6943 31.1609 45.6943 31.544H46.1943H46.6943C46.6943 31.0631 46.6231 30.617 46.4696 30.214L46.0023 30.392ZM46.1943 31.544H45.6943C45.6943 31.5773 45.6934 31.6049 45.692 31.6274C45.6905 31.6501 45.6886 31.6655 45.6871 31.6747C45.6856 31.6844 45.6851 31.6832 45.6879 31.6745C45.6904 31.6667 45.699 31.6418 45.7197 31.6096L46.1403 31.88L46.5609 32.1504C46.6336 32.0373 46.6612 31.9161 46.6745 31.8333C46.6892 31.7419 46.6943 31.6432 46.6943 31.544H46.1943ZM46.1403 31.88L45.7197 31.6096C45.7628 31.5426 45.8217 31.5013 45.8719 31.4807C45.9158 31.4626 45.9431 31.464 45.9363 31.464V31.964V32.464C46.1155 32.464 46.3926 32.4121 46.5609 32.1504L46.1403 31.88ZM45.9363 31.964V31.464H41.8743V31.964V32.464H45.9363V31.964ZM41.8743 31.964L41.3746 31.9796C41.3876 32.3979 41.4447 32.7806 41.5546 33.1201L42.0303 32.966L42.506 32.8119C42.432 32.5834 42.385 32.2981 42.3741 31.9484L41.8743 31.964ZM42.0303 32.966L41.5566 33.1261C41.6701 33.4616 41.8319 33.76 42.05 34.0093L42.4263 33.68L42.8026 33.3507C42.6847 33.216 42.5826 33.0384 42.504 32.8059L42.0303 32.966ZM42.4263 33.68L42.0535 34.0132C42.2714 34.257 42.5334 34.4431 42.8351 34.568L43.0263 34.106L43.2175 33.644C43.0553 33.5769 42.9173 33.479 42.7991 33.3468L42.4263 33.68ZM43.0263 34.106L42.842 34.5708C43.141 34.6893 43.4648 34.744 43.8063 34.744V34.244V33.744C43.5718 33.744 43.3757 33.7067 43.2106 33.6412L43.0263 34.106ZM43.8063 34.244V34.744C44.1092 34.744 44.3922 34.7104 44.6455 34.6312L44.4963 34.154L44.3472 33.6768C44.2164 33.7176 44.0394 33.744 43.8063 33.744V34.244ZM44.4963 34.154L44.6515 34.6293C44.8655 34.5594 45.0594 34.4819 45.229 34.3946L45.0003 33.95L44.7716 33.5054C44.6612 33.5621 44.5191 33.6206 44.3411 33.6787L44.4963 34.154ZM45.0003 33.95L45.229 34.3946C45.3783 34.3178 45.5104 34.2432 45.6214 34.1708L45.3483 33.752L45.0752 33.3332C45.0022 33.3808 44.9023 33.4382 44.7716 33.5054L45.0003 33.95ZM45.3483 33.752L45.6257 34.168C45.6385 34.1595 45.6482 34.1537 45.655 34.1501C45.6619 34.1464 45.6647 34.1454 45.6636 34.1458C45.6625 34.1462 45.6562 34.1486 45.645 34.151C45.6337 34.1534 45.6165 34.156 45.5943 34.156V33.656V33.156C45.3803 33.156 45.1981 33.2512 45.071 33.336L45.3483 33.752ZM45.5943 33.656V34.156C45.5729 34.156 45.5333 34.1515 45.4877 34.1287C45.4411 34.1054 45.4088 34.0732 45.3898 34.0463L45.7983 33.758L46.2068 33.4697C46.059 33.2602 45.8338 33.156 45.5943 33.156V33.656ZM45.7983 33.758L45.402 34.0629L45.702 34.4529L46.0983 34.148L46.4946 33.8431L46.1946 33.4531L45.7983 33.758Z" fill="black"/>
</svg>
