<svg width="33" height="14" viewBox="0 0 33 14" fill="none" xmlns="http://www.w3.org/2000/svg">
<path d="M8.082 7.866V11.166C7.65 11.478 7.188 11.712 6.696 11.868C6.208 12.02 5.672 12.096 5.088 12.096C4.396 12.096 3.772 11.99 3.216 11.778C2.66 11.562 2.184 11.262 1.788 10.878C1.396 10.49 1.094 10.026 0.882 9.486C0.67 8.946 0.564 8.352 0.564 7.704C0.564 7.048 0.666 6.45 0.87 5.91C1.078 5.37 1.372 4.908 1.752 4.524C2.132 4.136 2.594 3.836 3.138 3.624C3.682 3.412 4.29 3.306 4.962 3.306C5.302 3.306 5.618 3.332 5.91 3.384C6.202 3.432 6.472 3.504 6.72 3.6C6.968 3.692 7.198 3.806 7.41 3.942C7.622 4.074 7.82 4.224 8.004 4.392L7.674 4.92C7.622 5 7.554 5.052 7.47 5.076C7.39 5.096 7.3 5.076 7.2 5.016C7.104 4.96 6.994 4.892 6.87 4.812C6.746 4.732 6.594 4.656 6.414 4.584C6.238 4.508 6.028 4.444 5.784 4.392C5.544 4.34 5.258 4.314 4.926 4.314C4.442 4.314 4.004 4.394 3.612 4.554C3.22 4.71 2.886 4.936 2.61 5.232C2.334 5.524 2.122 5.88 1.974 6.3C1.826 6.716 1.752 7.184 1.752 7.704C1.752 8.244 1.828 8.728 1.98 9.156C2.136 9.58 2.356 9.942 2.64 10.242C2.928 10.538 3.276 10.764 3.684 10.92C4.092 11.076 4.55 11.154 5.058 11.154C5.458 11.154 5.812 11.11 6.12 11.022C6.432 10.93 6.736 10.804 7.032 10.644V8.754H5.694C5.618 8.754 5.556 8.732 5.508 8.688C5.464 8.644 5.442 8.59 5.442 8.526V7.866H8.082ZM13.6093 8.298C13.6093 8.05 13.5733 7.824 13.5013 7.62C13.4333 7.412 13.3313 7.234 13.1953 7.086C13.0633 6.934 12.9013 6.818 12.7093 6.738C12.5173 6.654 12.2993 6.612 12.0553 6.612C11.5433 6.612 11.1373 6.762 10.8373 7.062C10.5413 7.358 10.3573 7.77 10.2853 8.298H13.6093ZM14.4733 11.148C14.3413 11.308 14.1833 11.448 13.9993 11.568C13.8153 11.684 13.6173 11.78 13.4053 11.856C13.1973 11.932 12.9813 11.988 12.7573 12.024C12.5333 12.064 12.3113 12.084 12.0913 12.084C11.6713 12.084 11.2833 12.014 10.9273 11.874C10.5753 11.73 10.2693 11.522 10.0093 11.25C9.75331 10.974 9.55331 10.634 9.40931 10.23C9.26531 9.826 9.19331 9.362 9.19331 8.838C9.19331 8.414 9.25731 8.018 9.38531 7.65C9.51731 7.282 9.70531 6.964 9.94931 6.696C10.1933 6.424 10.4913 6.212 10.8433 6.06C11.1953 5.904 11.5913 5.826 12.0313 5.826C12.3953 5.826 12.7313 5.888 13.0393 6.012C13.3513 6.132 13.6193 6.308 13.8433 6.54C14.0713 6.768 14.2493 7.052 14.3773 7.392C14.5053 7.728 14.5693 8.112 14.5693 8.544C14.5693 8.712 14.5513 8.824 14.5153 8.88C14.4793 8.936 14.4113 8.964 14.3113 8.964H10.2493C10.2613 9.348 10.3133 9.682 10.4053 9.966C10.5013 10.25 10.6333 10.488 10.8013 10.68C10.9693 10.868 11.1693 11.01 11.4013 11.106C11.6333 11.198 11.8933 11.244 12.1813 11.244C12.4493 11.244 12.6793 11.214 12.8713 11.154C13.0673 11.09 13.2353 11.022 13.3753 10.95C13.5153 10.878 13.6313 10.812 13.7233 10.752C13.8193 10.688 13.9013 10.656 13.9693 10.656C14.0573 10.656 14.1253 10.69 14.1733 10.758L14.4733 11.148ZM16.8892 6.804C17.0212 6.656 17.1612 6.522 17.3092 6.402C17.4572 6.282 17.6132 6.18 17.7772 6.096C17.9452 6.008 18.1212 5.942 18.3052 5.898C18.4932 5.85 18.6952 5.826 18.9112 5.826C19.2432 5.826 19.5352 5.882 19.7872 5.994C20.0432 6.102 20.2552 6.258 20.4232 6.462C20.5952 6.662 20.7252 6.904 20.8132 7.188C20.9012 7.472 20.9452 7.786 20.9452 8.13V12H19.8712V8.13C19.8712 7.67 19.7652 7.314 19.5532 7.062C19.3452 6.806 19.0272 6.678 18.5992 6.678C18.2832 6.678 17.9872 6.754 17.7112 6.906C17.4392 7.058 17.1872 7.264 16.9552 7.524V12H15.8812V5.922H16.5232C16.6752 5.922 16.7692 5.996 16.8052 6.144L16.8892 6.804ZM23.5866 7.14C23.7786 6.724 24.0146 6.4 24.2946 6.168C24.5746 5.932 24.9166 5.814 25.3206 5.814C25.4486 5.814 25.5706 5.828 25.6866 5.856C25.8066 5.884 25.9126 5.928 26.0046 5.988L25.9266 6.786C25.9026 6.886 25.8426 6.936 25.7466 6.936C25.6906 6.936 25.6086 6.924 25.5006 6.9C25.3926 6.876 25.2706 6.864 25.1346 6.864C24.9426 6.864 24.7706 6.892 24.6186 6.948C24.4706 7.004 24.3366 7.088 24.2166 7.2C24.1006 7.308 23.9946 7.444 23.8986 7.608C23.8066 7.768 23.7226 7.952 23.6466 8.16V12H22.5726V5.922H23.1846C23.3006 5.922 23.3806 5.944 23.4246 5.988C23.4686 6.032 23.4986 6.108 23.5146 6.216L23.5866 7.14ZM30.7656 8.298C30.7656 8.05 30.7296 7.824 30.6576 7.62C30.5896 7.412 30.4876 7.234 30.3516 7.086C30.2196 6.934 30.0576 6.818 29.8656 6.738C29.6736 6.654 29.4556 6.612 29.2116 6.612C28.6996 6.612 28.2936 6.762 27.9936 7.062C27.6976 7.358 27.5136 7.77 27.4416 8.298H30.7656ZM31.6296 11.148C31.4976 11.308 31.3396 11.448 31.1556 11.568C30.9716 11.684 30.7736 11.78 30.5616 11.856C30.3536 11.932 30.1376 11.988 29.9136 12.024C29.6896 12.064 29.4676 12.084 29.2476 12.084C28.8276 12.084 28.4396 12.014 28.0836 11.874C27.7316 11.73 27.4256 11.522 27.1656 11.25C26.9096 10.974 26.7096 10.634 26.5656 10.23C26.4216 9.826 26.3496 9.362 26.3496 8.838C26.3496 8.414 26.4136 8.018 26.5416 7.65C26.6736 7.282 26.8616 6.964 27.1056 6.696C27.3496 6.424 27.6476 6.212 27.9996 6.06C28.3516 5.904 28.7476 5.826 29.1876 5.826C29.5516 5.826 29.8876 5.888 30.1956 6.012C30.5076 6.132 30.7756 6.308 30.9996 6.54C31.2276 6.768 31.4056 7.052 31.5336 7.392C31.6616 7.728 31.7256 8.112 31.7256 8.544C31.7256 8.712 31.7076 8.824 31.6716 8.88C31.6356 8.936 31.5676 8.964 31.4676 8.964H27.4056C27.4176 9.348 27.4696 9.682 27.5616 9.966C27.6576 10.25 27.7896 10.488 27.9576 10.68C28.1256 10.868 28.3256 11.01 28.5576 11.106C28.7896 11.198 29.0496 11.244 29.3376 11.244C29.6056 11.244 29.8356 11.214 30.0276 11.154C30.2236 11.09 30.3916 11.022 30.5316 10.95C30.6716 10.878 30.7876 10.812 30.8796 10.752C30.9756 10.688 31.0576 10.656 31.1256 10.656C31.2136 10.656 31.2816 10.69 31.3296 10.758L31.6296 11.148Z" fill="black"/>
<path d="M8.082 7.866H8.582V7.366H8.082V7.866ZM8.082 11.166L8.37475 11.5713L8.582 11.4217V11.166H8.082ZM6.696 11.868L6.84469 12.3454L6.84712 12.3446L6.696 11.868ZM3.216 11.778L3.03494 12.2441L3.03786 12.2452L3.216 11.778ZM1.788 10.878L1.43625 11.2334L1.43993 11.2369L1.788 10.878ZM0.882 9.486L1.34742 9.30328V9.30328L0.882 9.486ZM0.87 5.91L0.403407 5.73027L0.402264 5.7333L0.87 5.91ZM1.752 4.524L2.1074 4.8757L2.10922 4.87385L1.752 4.524ZM3.138 3.624L3.31955 4.08987H3.31955L3.138 3.624ZM5.91 3.384L5.82233 3.8763L5.8289 3.87738L5.91 3.384ZM6.72 3.6L6.53949 4.06633L6.5461 4.06878L6.72 3.6ZM7.41 3.942L7.14 4.36288L7.14572 4.36645L7.41 3.942ZM8.004 4.392L8.428 4.657L8.64882 4.30369L8.34114 4.02276L8.004 4.392ZM7.674 4.92L8.09329 5.19254L8.098 5.185L7.674 4.92ZM7.47 5.076L7.59127 5.56107L7.59935 5.55905L7.60736 5.55676L7.47 5.076ZM7.2 5.016L7.45727 4.58722L7.45194 4.58411L7.2 5.016ZM6.87 4.812L7.14106 4.39185L7.14106 4.39185L6.87 4.812ZM6.414 4.584L6.21571 5.0432L6.2283 5.04824L6.414 4.584ZM5.784 4.392L5.67812 4.88066L5.67978 4.88102L5.784 4.392ZM3.612 4.554L3.79689 5.01858L3.80095 5.01692L3.612 4.554ZM2.61 5.232L2.97338 5.57547L2.97569 5.57298L2.61 5.232ZM1.974 6.3L2.44508 6.46759L2.44558 6.46617L1.974 6.3ZM1.98 9.156L1.5088 9.32334L1.51075 9.32865L1.98 9.156ZM2.64 10.242L2.27686 10.5858L2.28164 10.5907L2.64 10.242ZM6.12 11.022L6.25737 11.5028L6.26142 11.5016L6.12 11.022ZM7.032 10.644L7.26976 11.0839L7.532 10.9421V10.644H7.032ZM7.032 8.754H7.532V8.254H7.032V8.754ZM5.508 8.688L5.15445 9.04155L5.16213 9.04924L5.17014 9.05658L5.508 8.688ZM5.442 7.866V7.366H4.942V7.866H5.442ZM8.082 7.866H7.582V11.166H8.082H8.582V7.866H8.082ZM8.082 11.166L7.78926 10.7607C7.39896 11.0425 6.98454 11.252 6.54488 11.3914L6.696 11.868L6.84712 12.3446C7.39146 12.172 7.90104 11.9135 8.37475 11.5713L8.082 11.166ZM6.696 11.868L6.54731 11.3906C6.11375 11.5257 5.62863 11.596 5.088 11.596V12.096V12.596C5.71537 12.596 6.30225 12.5143 6.84469 12.3454L6.696 11.868ZM5.088 12.096V11.596C4.44712 11.596 3.88479 11.4979 3.39414 11.3108L3.216 11.778L3.03786 12.2452C3.65921 12.4821 4.34488 12.596 5.088 12.596V12.096ZM3.216 11.778L3.39706 11.3119C2.89821 11.1181 2.48033 10.8529 2.13607 10.519L1.788 10.878L1.43993 11.2369C1.88767 11.6711 2.42179 12.0059 3.03494 12.2441L3.216 11.778ZM1.788 10.878L2.13974 10.5226C1.79979 10.1862 1.53531 9.78187 1.34742 9.30328L0.882 9.486L0.416582 9.66872C0.652692 10.2701 0.992208 10.7938 1.43626 11.2334L1.788 10.878ZM0.882 9.486L1.34742 9.30328C1.16079 8.82791 1.064 8.29676 1.064 7.704H0.564H0.064C0.064 8.40724 0.179208 9.06409 0.416582 9.66872L0.882 9.486ZM0.564 7.704H1.064C1.064 7.10021 1.15777 6.56308 1.33774 6.0867L0.87 5.91L0.402264 5.7333C0.174228 6.33692 0.064 6.99579 0.064 7.704H0.564ZM0.87 5.91L1.33658 6.08972C1.52157 5.60946 1.77931 5.20724 2.1074 4.8757L1.752 4.524L1.3966 4.1723C0.964687 4.60876 0.634426 5.13054 0.403416 5.73028L0.87 5.91ZM1.752 4.524L2.10922 4.87385C2.43591 4.54028 2.83664 4.27807 3.31955 4.08987L3.138 3.624L2.95645 3.15813C2.35136 3.39393 1.82809 3.73172 1.39478 4.17415L1.752 4.524ZM3.138 3.624L3.31955 4.08987C3.79764 3.90356 4.34285 3.806 4.962 3.806V3.306V2.806C4.23715 2.806 3.56637 2.92044 2.95645 3.15813L3.138 3.624ZM4.962 3.306V3.806C5.27678 3.806 5.56311 3.83009 5.82234 3.87626L5.91 3.384L5.99766 2.89174C5.67289 2.83391 5.32722 2.806 4.962 2.806V3.306ZM5.91 3.384L5.8289 3.87738C6.09067 3.92041 6.32698 3.98402 6.5395 4.06628L6.72 3.6L6.9005 3.13372C6.61702 3.02398 6.31333 2.94359 5.9911 2.89062L5.91 3.384ZM6.72 3.6L6.5461 4.06878C6.76213 4.14892 6.95971 4.24717 7.14002 4.36285L7.41 3.942L7.67998 3.52115C7.43629 3.36483 7.17387 3.23508 6.8939 3.13122L6.72 3.6ZM7.41 3.942L7.14572 4.36645C7.33186 4.48235 7.50547 4.61388 7.66687 4.76124L8.004 4.392L8.34114 4.02276C8.13453 3.83412 7.91214 3.66565 7.67428 3.51755L7.41 3.942ZM8.004 4.392L7.58 4.127L7.25 4.655L7.674 4.92L8.098 5.185L8.428 4.657L8.004 4.392ZM7.674 4.92L7.25478 4.64751C7.25634 4.6451 7.26406 4.63422 7.28028 4.62182C7.29704 4.609 7.3157 4.60008 7.33264 4.59524L7.47 5.076L7.60736 5.55676C7.8184 5.49646 7.98201 5.36359 8.09322 5.19249L7.674 4.92ZM7.47 5.076L7.34873 4.59093C7.39254 4.57998 7.42923 4.58308 7.45097 4.58791C7.47021 4.59218 7.4728 4.59658 7.45725 4.58725L7.2 5.016L6.94275 5.44475C7.10884 5.5444 7.33724 5.62458 7.59127 5.56107L7.47 5.076ZM7.2 5.016L7.45194 4.58411C7.36409 4.53287 7.26067 4.46902 7.14106 4.39185L6.87 4.812L6.59894 5.23215C6.72733 5.31498 6.84391 5.38713 6.94806 5.44789L7.2 5.016ZM6.87 4.812L7.14106 4.39185C6.98322 4.29002 6.80081 4.20021 6.5997 4.11976L6.414 4.584L6.2283 5.04824C6.38719 5.11179 6.50878 5.17398 6.59894 5.23215L6.87 4.812ZM6.414 4.584L6.61222 4.12497C6.39849 4.03268 6.1554 3.95992 5.88822 3.90298L5.784 4.392L5.67978 4.88102C5.9006 4.92808 6.07751 4.98332 6.21578 5.04303L6.414 4.584ZM5.784 4.392L5.88988 3.90334C5.60537 3.8417 5.28205 3.814 4.926 3.814V4.314V4.814C5.23395 4.814 5.48263 4.8383 5.67812 4.88066L5.784 4.392ZM4.926 4.314V3.814C4.38641 3.814 3.88301 3.90334 3.42305 4.09108L3.612 4.554L3.80095 5.01692C4.125 4.88466 4.49759 4.814 4.926 4.814V4.314ZM3.612 4.554L3.42712 4.08944C2.96945 4.27157 2.57286 4.53866 2.24431 4.89102L2.61 5.232L2.97569 5.57298C3.19914 5.33334 3.47055 5.14843 3.79688 5.01856L3.612 4.554ZM2.61 5.232L2.24663 4.88854C1.91758 5.23667 1.67115 5.655 1.50242 6.13382L1.974 6.3L2.44558 6.46617C2.57285 6.105 2.75042 5.81133 2.97337 5.57546L2.61 5.232ZM1.974 6.3L1.50292 6.13241C1.33272 6.61082 1.252 7.13681 1.252 7.704H1.752H2.252C2.252 7.23119 2.31928 6.82118 2.44508 6.46759L1.974 6.3ZM1.752 7.704H1.252C1.252 8.29052 1.33453 8.83253 1.50883 9.32333L1.98 9.156L2.45117 8.98867C2.32147 8.62346 2.252 8.19748 2.252 7.704H1.752ZM1.98 9.156L1.51075 9.32865C1.68796 9.81028 1.94208 10.2321 2.2769 10.5857L2.64 10.242L3.0031 9.89826C2.76993 9.65195 2.58404 9.34972 2.44925 8.98335L1.98 9.156ZM2.64 10.242L2.28164 10.5907C2.62317 10.9417 3.03361 11.2066 3.50543 11.387L3.684 10.92L3.86257 10.453C3.51839 10.3214 3.23284 10.1343 2.99836 9.89332L2.64 10.242ZM3.684 10.92L3.50543 11.387C3.97892 11.5681 4.49875 11.654 5.058 11.654V11.154V10.654C4.60125 10.654 4.20508 10.5839 3.86257 10.453L3.684 10.92ZM5.058 11.154V11.654C5.49345 11.654 5.89522 11.6062 6.25736 11.5028L6.12 11.022L5.98264 10.5412C5.72878 10.6138 5.42255 10.654 5.058 10.654V11.154ZM6.12 11.022L6.26142 11.5016C6.60796 11.3994 6.94417 11.2598 7.26976 11.0839L7.032 10.644L6.79424 10.2041C6.52783 10.3482 6.25604 10.4606 5.97858 10.5424L6.12 11.022ZM7.032 10.644H7.532V8.754H7.032H6.532V10.644H7.032ZM7.032 8.754V8.254H5.694V8.754V9.254H7.032V8.754ZM5.694 8.754V8.254C5.70428 8.254 5.7274 8.25553 5.75771 8.26629C5.78923 8.27747 5.81991 8.29564 5.84586 8.31942L5.508 8.688L5.17014 9.05658C5.32556 9.19904 5.51518 9.254 5.694 9.254V8.754ZM5.508 8.688L5.86155 8.33445C5.88347 8.35636 5.90575 8.38707 5.92155 8.42585C5.93723 8.46435 5.942 8.49965 5.942 8.526H5.442H4.942C4.942 8.71838 5.01373 8.90083 5.15445 9.04155L5.508 8.688ZM5.442 8.526H5.942V7.866H5.442H4.942V8.526H5.442ZM5.442 7.866V8.366H8.082V7.866V7.366H5.442V7.866ZM13.6093 8.298V8.798H14.1093V8.298H13.6093ZM13.5013 7.62L13.0259 7.77541L13.0298 7.78641L13.5013 7.62ZM13.1953 7.086L12.8176 7.41397L12.8271 7.42431L13.1953 7.086ZM12.7093 6.738L12.5089 7.19615L12.517 7.19954L12.7093 6.738ZM10.8373 7.062L11.1909 7.41555V7.41555L10.8373 7.062ZM10.2853 8.298L9.7899 8.23044L9.7125 8.798H10.2853V8.298ZM14.4733 11.148L14.859 11.4662L15.1125 11.1589L14.8696 10.8431L14.4733 11.148ZM13.9993 11.568L14.266 11.991L14.2724 11.9868L13.9993 11.568ZM13.4053 11.856L13.2366 11.3853L13.2337 11.3864L13.4053 11.856ZM12.7573 12.024L12.678 11.5303L12.6694 11.5318L12.7573 12.024ZM10.9273 11.874L10.738 12.3368L10.7443 12.3393L10.9273 11.874ZM10.0093 11.25L9.64268 11.5901L9.64788 11.5955L10.0093 11.25ZM9.38531 7.65L8.91465 7.48118L8.91306 7.48574L9.38531 7.65ZM9.94931 6.696L10.319 7.03262L10.3215 7.02988L9.94931 6.696ZM10.8433 6.06L11.0415 6.51905L11.0459 6.51712L10.8433 6.06ZM13.0393 6.012L12.8526 6.47588L12.8598 6.47867L13.0393 6.012ZM13.8433 6.54L13.4836 6.88735L13.4898 6.89355L13.8433 6.54ZM14.3773 7.392L13.9094 7.56817L13.9101 7.57L14.3773 7.392ZM10.2493 8.964V8.464H9.73344L9.74956 8.97962L10.2493 8.964ZM10.4053 9.966L9.92961 10.1201L9.93164 10.1261L10.4053 9.966ZM10.8013 10.68L10.425 11.0093L10.4285 11.0132L10.8013 10.68ZM11.4013 11.106L11.2101 11.5681L11.217 11.5708L11.4013 11.106ZM12.8713 11.154L13.0205 11.6313L13.0265 11.6293L12.8713 11.154ZM13.3753 10.95L13.1466 10.5054V10.5054L13.3753 10.95ZM13.7233 10.752L13.9965 11.1708L14.0007 11.168L13.7233 10.752ZM14.1733 10.758L13.7648 11.0463L13.7707 11.0547L13.777 11.0629L14.1733 10.758ZM13.6093 8.298H14.1093C14.1093 8.00149 14.0662 7.71824 13.9728 7.45359L13.5013 7.62L13.0298 7.78641C13.0804 7.92976 13.1093 8.09851 13.1093 8.298H13.6093ZM13.5013 7.62L13.9766 7.46463C13.8883 7.1948 13.752 6.95284 13.5635 6.74769L13.1953 7.086L12.8271 7.42431C12.9106 7.51516 12.9783 7.6292 13.0261 7.77537L13.5013 7.62ZM13.1953 7.086L13.5728 6.75816C13.3885 6.54593 13.1624 6.38512 12.9016 6.27646L12.7093 6.738L12.517 7.19954C12.6402 7.25088 12.7381 7.32207 12.8178 7.41384L13.1953 7.086ZM12.7093 6.738L12.9097 6.27992C12.645 6.1641 12.3571 6.112 12.0553 6.112V6.612V7.112C12.2416 7.112 12.3896 7.1439 12.5089 7.19608L12.7093 6.738ZM12.0553 6.612V6.112C11.44 6.112 10.8964 6.29581 10.4838 6.70845L10.8373 7.062L11.1909 7.41555C11.3782 7.22818 11.6466 7.112 12.0553 7.112V6.612ZM10.8373 7.062L10.4838 6.70845C10.0916 7.10062 9.87259 7.62404 9.7899 8.23044L10.2853 8.298L10.7807 8.36556C10.842 7.91596 10.991 7.61538 11.1909 7.41555L10.8373 7.062ZM10.2853 8.298V8.798H13.6093V8.298V7.798H10.2853V8.298ZM14.4733 11.148L14.0876 10.8298C13.9897 10.9485 13.8703 11.0552 13.7262 11.1492L13.9993 11.568L14.2724 11.9868C14.4963 11.8408 14.6929 11.6675 14.859 11.4662L14.4733 11.148ZM13.9993 11.568L13.7327 11.145C13.5805 11.2409 13.4155 11.3212 13.2366 11.3853L13.4053 11.856L13.574 12.3267C13.8191 12.2388 14.0501 12.1271 14.266 11.991L13.9993 11.568ZM13.4053 11.856L13.2337 11.3864C13.0564 11.4512 12.8713 11.4993 12.678 11.5303L12.7573 12.024L12.8367 12.5177C13.0913 12.4767 13.3383 12.4128 13.5769 12.3256L13.4053 11.856ZM12.7573 12.024L12.6694 11.5318C12.4734 11.5668 12.2809 11.584 12.0913 11.584V12.084V12.584C12.3418 12.584 12.5932 12.5612 12.8452 12.5162L12.7573 12.024ZM12.0913 12.084V11.584C11.7278 11.584 11.4026 11.5236 11.1103 11.4087L10.9273 11.874L10.7443 12.3393C11.1641 12.5044 11.6148 12.584 12.0913 12.584V12.084ZM10.9273 11.874L11.1166 11.4112C10.8289 11.2935 10.5817 11.1252 10.3707 10.9045L10.0093 11.25L9.64788 11.5955C9.95691 11.9188 10.3217 12.1665 10.738 12.3368L10.9273 11.874ZM10.0093 11.25L10.3759 10.91C10.172 10.6902 10.0047 10.4111 9.88029 10.0621L9.40931 10.23L8.93834 10.3979C9.10194 10.8569 9.33462 11.2578 9.64273 11.59L10.0093 11.25ZM9.40931 10.23L9.88029 10.0621C9.75922 9.72246 9.69331 9.31705 9.69331 8.838H9.19331H8.69331C8.69331 9.40695 8.77141 9.92954 8.93834 10.3979L9.40931 10.23ZM9.19331 8.838H9.69331C9.69331 8.46499 9.74948 8.12498 9.85756 7.81426L9.38531 7.65L8.91306 7.48574C8.76514 7.91102 8.69331 8.36301 8.69331 8.838H9.19331ZM9.38531 7.65L9.85595 7.81882C9.96747 7.50792 10.1228 7.24815 10.319 7.03261L9.94931 6.696L9.57959 6.35939C9.28783 6.67985 9.06716 7.05608 8.91467 7.48118L9.38531 7.65ZM9.94931 6.696L10.3215 7.02988C10.5149 6.81433 10.7525 6.64382 11.0415 6.51903L10.8433 6.06L10.6451 5.60097C10.2301 5.78018 9.87176 6.03367 9.57712 6.36212L9.94931 6.696ZM10.8433 6.06L11.0459 6.51712C11.3256 6.39316 11.6512 6.326 12.0313 6.326V5.826V5.326C11.5315 5.326 11.065 5.41484 10.6407 5.60288L10.8433 6.06ZM12.0313 5.826V6.326C12.3375 6.326 12.6094 6.37792 12.8526 6.47582L13.0393 6.012L13.226 5.54818C12.8532 5.39808 12.4531 5.326 12.0313 5.326V5.826ZM13.0393 6.012L12.8598 6.47867C13.1063 6.57348 13.3121 6.70969 13.4836 6.8873L13.8433 6.54L14.203 6.1927C13.9265 5.90631 13.5963 5.69052 13.2188 5.54533L13.0393 6.012ZM13.8433 6.54L13.4898 6.89355C13.6614 7.06522 13.8033 7.2863 13.9094 7.56816L14.3773 7.392L14.8453 7.21584C14.6954 6.8177 14.4812 6.47078 14.1969 6.18645L13.8433 6.54ZM14.3773 7.392L13.9101 7.57C14.0125 7.83897 14.0693 8.16089 14.0693 8.544H14.5693H15.0693C15.0693 8.06311 14.9981 7.61703 14.8446 7.214L14.3773 7.392ZM14.5693 8.544H14.0693C14.0693 8.57731 14.0684 8.60494 14.067 8.62742C14.0655 8.65013 14.0636 8.66547 14.0621 8.67466C14.0606 8.68435 14.0601 8.68323 14.0629 8.6745C14.0654 8.66667 14.074 8.6418 14.0947 8.60962L14.5153 8.88L14.9359 9.15038C15.0086 9.03734 15.0362 8.9161 15.0495 8.83334C15.0642 8.74187 15.0693 8.64322 15.0693 8.544H14.5693ZM14.5153 8.88L14.0947 8.60962C14.1378 8.54264 14.1967 8.50134 14.2469 8.48066C14.2908 8.46259 14.3181 8.464 14.3113 8.464V8.964V9.464C14.4904 9.464 14.7676 9.41211 14.9359 9.15038L14.5153 8.88ZM14.3113 8.964V8.464H10.2493V8.964V9.464H14.3113V8.964ZM10.2493 8.964L9.74956 8.97962C9.76263 9.39794 9.81967 9.7806 9.92965 10.1201L10.4053 9.966L10.881 9.81191C10.807 9.5834 10.76 9.29806 10.7491 8.94838L10.2493 8.964ZM10.4053 9.966L9.93164 10.1261C10.0451 10.4616 10.2069 10.76 10.425 11.0093L10.8013 10.68L11.1776 10.3507C11.0597 10.216 10.9576 10.0384 10.879 9.80589L10.4053 9.966ZM10.8013 10.68L10.4285 11.0132C10.6464 11.257 10.9084 11.4431 11.2101 11.568L11.4013 11.106L11.5925 10.644C11.4303 10.5769 11.2923 10.479 11.1741 10.3468L10.8013 10.68ZM11.4013 11.106L11.217 11.5708C11.516 11.6893 11.8398 11.744 12.1813 11.744V11.244V10.744C11.9468 10.744 11.7507 10.7067 11.5856 10.6412L11.4013 11.106ZM12.1813 11.244V11.744C12.4842 11.744 12.7672 11.7104 13.0205 11.6312L12.8713 11.154L12.7222 10.6768C12.5914 10.7176 12.4144 10.744 12.1813 10.744V11.244ZM12.8713 11.154L13.0265 11.6293C13.2405 11.5594 13.4344 11.4819 13.604 11.3946L13.3753 10.95L13.1466 10.5054C13.0362 10.5621 12.8941 10.6206 12.7161 10.6787L12.8713 11.154ZM13.3753 10.95L13.604 11.3946C13.7533 11.3178 13.8854 11.2432 13.9964 11.1708L13.7233 10.752L13.4502 10.3332C13.3772 10.3808 13.2773 10.4382 13.1466 10.5054L13.3753 10.95ZM13.7233 10.752L14.0007 11.168C14.0135 11.1595 14.0232 11.1537 14.03 11.1501C14.0369 11.1464 14.0397 11.1454 14.0386 11.1458C14.0375 11.1462 14.0312 11.1486 14.02 11.151C14.0087 11.1534 13.9915 11.156 13.9693 11.156V10.656V10.156C13.7553 10.156 13.5731 10.2512 13.446 10.336L13.7233 10.752ZM13.9693 10.656V11.156C13.9479 11.156 13.9083 11.1515 13.8627 11.1287C13.8161 11.1054 13.7838 11.0732 13.7648 11.0463L14.1733 10.758L14.5818 10.4697C14.434 10.2602 14.2088 10.156 13.9693 10.156V10.656ZM14.1733 10.758L13.777 11.0629L14.077 11.4529L14.4733 11.148L14.8696 10.8431L14.5696 10.4531L14.1733 10.758ZM16.8892 6.804L16.3932 6.86713L16.5317 7.95593L17.2623 7.13681L16.8892 6.804ZM17.3092 6.402L17.6241 6.79038V6.79038L17.3092 6.402ZM17.7772 6.096L18.0051 6.54104L18.0092 6.53892L17.7772 6.096ZM18.3052 5.898L18.4215 6.38435L18.4288 6.38246L18.3052 5.898ZM19.7872 5.994L19.5841 6.45099L19.5928 6.45468L19.7872 5.994ZM20.4232 6.462L20.0371 6.77993L20.0441 6.78802L20.4232 6.462ZM20.8132 7.188L21.2908 7.04001V7.04001L20.8132 7.188ZM20.9452 12V12.5H21.4452V12H20.9452ZM19.8712 12H19.3712V12.5H19.8712V12ZM19.5532 7.062L19.165 7.37734L19.1705 7.38388L19.5532 7.062ZM17.7112 6.906L17.4699 6.46802L17.4672 6.46953L17.7112 6.906ZM16.9552 7.524L16.5821 7.19111L16.4552 7.33335V7.524H16.9552ZM16.9552 12V12.5H17.4552V12H16.9552ZM15.8812 12H15.3812V12.5H15.8812V12ZM15.8812 5.922V5.422H15.3812V5.922H15.8812ZM16.8052 6.144L17.3012 6.08087L17.2976 6.05306L17.291 6.02582L16.8052 6.144ZM16.8892 6.804L17.2623 7.13681C17.3771 7.00805 17.4978 6.89278 17.6241 6.79038L17.3092 6.402L16.9943 6.01362C16.8245 6.15122 16.6652 6.30395 16.516 6.47119L16.8892 6.804ZM17.3092 6.402L17.6241 6.79038C17.746 6.69148 17.873 6.60868 18.0051 6.54102L17.7772 6.096L17.5492 5.65098C17.3533 5.75132 17.1683 5.87252 16.9943 6.01362L17.3092 6.402ZM17.7772 6.096L18.0092 6.53892C18.1406 6.47006 18.2778 6.41865 18.4214 6.38429L18.3052 5.898L18.1889 5.41171C17.9646 5.46535 17.7497 5.54594 17.5452 5.65308L17.7772 6.096ZM18.3052 5.898L18.4288 6.38246C18.5722 6.34587 18.7322 6.326 18.9112 6.326V5.826V5.326C18.6581 5.326 18.4142 5.35413 18.1815 5.41354L18.3052 5.898ZM18.9112 5.826V6.326C19.1872 6.326 19.4077 6.3725 19.5841 6.45091L19.7872 5.994L19.9902 5.53709C19.6626 5.3915 19.2991 5.326 18.9112 5.326V5.826ZM19.7872 5.994L19.5928 6.45468C19.7783 6.53293 19.9232 6.64148 20.0372 6.77985L20.4232 6.462L20.8091 6.14415C20.5871 5.87452 20.308 5.67107 19.9815 5.53332L19.7872 5.994ZM20.4232 6.462L20.0441 6.78802C20.166 6.92983 20.2653 7.10914 20.3356 7.33599L20.8132 7.188L21.2908 7.04001C21.185 6.69886 21.0243 6.39417 20.8022 6.13598L20.4232 6.462ZM20.8132 7.188L20.3356 7.33599C20.4066 7.56522 20.4452 7.82847 20.4452 8.13H20.9452H21.4452C21.4452 7.74353 21.3957 7.37878 21.2908 7.04001L20.8132 7.188ZM20.9452 8.13H20.4452V12H20.9452H21.4452V8.13H20.9452ZM20.9452 12V11.5H19.8712V12V12.5H20.9452V12ZM19.8712 12H20.3712V8.13H19.8712H19.3712V12H19.8712ZM19.8712 8.13H20.3712C20.3712 7.59854 20.2488 7.11226 19.9358 6.74012L19.5532 7.062L19.1705 7.38388C19.2815 7.51574 19.3712 7.74146 19.3712 8.13H19.8712ZM19.5532 7.062L19.9412 6.7467C19.6115 6.34087 19.1294 6.178 18.5992 6.178V6.678V7.178C18.925 7.178 19.0788 7.27113 19.1651 7.3773L19.5532 7.062ZM18.5992 6.678V6.178C18.1991 6.178 17.8201 6.27521 17.47 6.46803L17.7112 6.906L17.9524 7.34397C18.1543 7.23279 18.3672 7.178 18.5992 7.178V6.678ZM17.7112 6.906L17.4672 6.46953C17.1414 6.65164 16.8467 6.8945 16.5821 7.19111L16.9552 7.524L17.3282 7.85689C17.5276 7.6335 17.737 7.46436 17.9551 7.34247L17.7112 6.906ZM16.9552 7.524H16.4552V12H16.9552H17.4552V7.524H16.9552ZM16.9552 12V11.5H15.8812V12V12.5H16.9552V12ZM15.8812 12H16.3812V5.922H15.8812H15.3812V12H15.8812ZM15.8812 5.922V6.422H16.5232V5.922V5.422H15.8812V5.922ZM16.5232 5.922V6.422C16.5178 6.422 16.461 6.41969 16.3984 6.37037C16.3358 6.32113 16.3204 6.26678 16.3193 6.26218L16.8052 6.144L17.291 6.02582C17.2539 5.87322 17.1735 5.70787 17.0169 5.58463C16.8603 5.46131 16.6805 5.422 16.5232 5.422V5.922ZM16.8052 6.144L16.3092 6.20713L16.3932 6.86713L16.8892 6.804L17.3852 6.74087L17.3012 6.08087L16.8052 6.144ZM23.5866 7.14L23.0881 7.17884L23.237 9.09047L24.0405 7.34953L23.5866 7.14ZM24.2946 6.168L24.6136 6.55302L24.6168 6.55031L24.2946 6.168ZM25.6866 5.856L25.5692 6.34205L25.5729 6.34292L25.6866 5.856ZM26.0046 5.988L26.5022 6.03664L26.5317 5.73484L26.2777 5.56919L26.0046 5.988ZM25.9266 6.786L26.4128 6.90269L26.4208 6.86906L26.4242 6.83464L25.9266 6.786ZM25.5006 6.9L25.3921 7.38809V7.38809L25.5006 6.9ZM24.6186 6.948L24.4457 6.47881L24.4416 6.48036L24.6186 6.948ZM24.2166 7.2L24.5573 7.56595L24.5577 7.56553L24.2166 7.2ZM23.8986 7.608L23.467 7.3554L23.4651 7.35876L23.8986 7.608ZM23.6466 8.16L23.1769 7.9884L23.1466 8.07151V8.16H23.6466ZM23.6466 12V12.5H24.1466V12H23.6466ZM22.5726 12H22.0726V12.5H22.5726V12ZM22.5726 5.922V5.422H22.0726V5.922H22.5726ZM23.4246 5.988L23.7781 5.63445L23.7781 5.63444L23.4246 5.988ZM23.5146 6.216L24.0131 6.17716L24.0117 6.15987L24.0092 6.14273L23.5146 6.216ZM23.5866 7.14L24.0405 7.34953C24.2091 6.98424 24.4041 6.7266 24.6136 6.55301L24.2946 6.168L23.9756 5.78299C23.6251 6.0734 23.348 6.46376 23.1326 6.93047L23.5866 7.14ZM24.2946 6.168L24.6168 6.55031C24.7971 6.39831 25.0215 6.314 25.3206 6.314V5.814V5.314C24.8117 5.314 24.352 5.46569 23.9723 5.78569L24.2946 6.168ZM25.3206 5.814V6.314C25.4119 6.314 25.4943 6.32396 25.5692 6.34204L25.6866 5.856L25.8039 5.36996C25.6468 5.33204 25.4852 5.314 25.3206 5.314V5.814ZM25.6866 5.856L25.5729 6.34292C25.6431 6.35928 25.6938 6.38226 25.7314 6.40681L26.0046 5.988L26.2777 5.56919C26.1313 5.47374 25.9701 5.40872 25.8002 5.36908L25.6866 5.856ZM26.0046 5.988L25.5069 5.93936L25.4289 6.73736L25.9266 6.786L26.4242 6.83464L26.5022 6.03664L26.0046 5.988ZM25.9266 6.786L25.4404 6.66931C25.4456 6.64766 25.468 6.5773 25.5435 6.51439C25.6225 6.44849 25.7053 6.436 25.7466 6.436V6.936V7.436C25.8838 7.436 26.0446 7.39851 26.1837 7.28261C26.3191 7.1697 26.3836 7.02434 26.4128 6.90269L25.9266 6.786ZM25.7466 6.936V6.436C25.7513 6.436 25.7427 6.43626 25.7155 6.43227C25.6898 6.42851 25.6548 6.42207 25.609 6.41191L25.5006 6.9L25.3921 7.38809C25.5083 7.41392 25.6339 7.436 25.7466 7.436V6.936ZM25.5006 6.9L25.609 6.41191C25.4584 6.37843 25.2991 6.364 25.1346 6.364V6.864V7.364C25.242 7.364 25.3267 7.37357 25.3921 7.38809L25.5006 6.9ZM25.1346 6.864V6.364C24.8943 6.364 24.6623 6.39905 24.4457 6.47883L24.6186 6.948L24.7914 7.41717C24.8789 7.38495 24.9909 7.364 25.1346 7.364V6.864ZM24.6186 6.948L24.4416 6.48036C24.2305 6.56025 24.0412 6.67976 23.8754 6.83447L24.2166 7.2L24.5577 7.56553C24.632 7.49624 24.7106 7.44775 24.7955 7.41564L24.6186 6.948ZM24.2166 7.2L23.8759 6.83405C23.718 6.98104 23.5829 7.15748 23.4671 7.35541L23.8986 7.608L24.3301 7.86059C24.4062 7.73052 24.4831 7.63496 24.5573 7.56595L24.2166 7.2ZM23.8986 7.608L23.4651 7.35876C23.3564 7.54789 23.2609 7.75867 23.1769 7.9884L23.6466 8.16L24.1162 8.3316C24.1843 8.14533 24.2568 7.98811 24.332 7.85723L23.8986 7.608ZM23.6466 8.16H23.1466V12H23.6466H24.1466V8.16H23.6466ZM23.6466 12V11.5H22.5726V12V12.5H23.6466V12ZM22.5726 12H23.0726V5.922H22.5726H22.0726V12H22.5726ZM22.5726 5.922V6.422H23.1846V5.922V5.422H22.5726V5.922ZM23.1846 5.922V6.422C23.2141 6.422 23.2155 6.42515 23.199 6.4206C23.1823 6.41602 23.1274 6.39792 23.071 6.34155L23.4246 5.988L23.7781 5.63444C23.5866 5.44291 23.3302 5.422 23.1846 5.422V5.922ZM23.4246 5.988L23.071 6.34155C23.032 6.30252 23.0176 6.26828 23.015 6.26158C23.0122 6.25448 23.0158 6.26128 23.02 6.28927L23.5146 6.216L24.0092 6.14273C23.988 5.99976 23.9366 5.79296 23.7781 5.63445L23.4246 5.988ZM23.5146 6.216L23.0161 6.25484L23.0881 7.17884L23.5866 7.14L24.0851 7.10116L24.0131 6.17716L23.5146 6.216ZM30.7656 8.298V8.798H31.2656V8.298H30.7656ZM30.6576 7.62L30.1822 7.77541L30.1861 7.78641L30.6576 7.62ZM30.3516 7.086L29.9739 7.41397L29.9834 7.42431L30.3516 7.086ZM29.8656 6.738L29.6651 7.19615L29.6733 7.19954L29.8656 6.738ZM27.9936 7.062L28.3471 7.41555V7.41555L27.9936 7.062ZM27.4416 8.298L26.9461 8.23044L26.8688 8.798H27.4416V8.298ZM31.6296 11.148L32.0153 11.4662L32.2688 11.1589L32.0259 10.8431L31.6296 11.148ZM31.1556 11.568L31.4222 11.991L31.4287 11.9868L31.1556 11.568ZM30.5616 11.856L30.3928 11.3853L30.39 11.3864L30.5616 11.856ZM29.9136 12.024L29.8342 11.5303L29.8257 11.5318L29.9136 12.024ZM28.0836 11.874L27.8942 12.3368L27.9006 12.3393L28.0836 11.874ZM27.1656 11.25L26.7989 11.5901L26.8041 11.5955L27.1656 11.25ZM26.5416 7.65L26.0709 7.48118L26.0693 7.48574L26.5416 7.65ZM27.1056 6.696L27.4753 7.03262L27.4778 7.02988L27.1056 6.696ZM27.9996 6.06L28.1978 6.51905L28.2022 6.51712L27.9996 6.06ZM30.1956 6.012L30.0088 6.47588L30.0161 6.47867L30.1956 6.012ZM30.9996 6.54L30.6398 6.88735L30.646 6.89355L30.9996 6.54ZM31.5336 7.392L31.0656 7.56817L31.0663 7.57L31.5336 7.392ZM27.4056 8.964V8.464H26.8897L26.9058 8.97962L27.4056 8.964ZM27.5616 9.966L27.0859 10.1201L27.0879 10.1261L27.5616 9.966ZM27.9576 10.68L27.5813 11.0093L27.5847 11.0132L27.9576 10.68ZM28.5576 11.106L28.3664 11.5681L28.3732 11.5708L28.5576 11.106ZM30.0276 11.154L30.1767 11.6313L30.1828 11.6293L30.0276 11.154ZM30.5316 10.95L30.3029 10.5054V10.5054L30.5316 10.95ZM30.8796 10.752L31.1527 11.1708L31.1569 11.168L30.8796 10.752ZM31.3296 10.758L30.9211 11.0463L30.927 11.0547L30.9333 11.0629L31.3296 10.758ZM30.7656 8.298H31.2656C31.2656 8.00149 31.2225 7.71824 31.1291 7.45359L30.6576 7.62L30.1861 7.78641C30.2367 7.92976 30.2656 8.09851 30.2656 8.298H30.7656ZM30.6576 7.62L31.1328 7.46463C31.0446 7.1948 30.9082 6.95284 30.7197 6.74769L30.3516 7.086L29.9834 7.42431C30.0669 7.51516 30.1345 7.6292 30.1823 7.77537L30.6576 7.62ZM30.3516 7.086L30.7291 6.75816C30.5448 6.54593 30.3187 6.38512 30.0579 6.27646L29.8656 6.738L29.6733 7.19954C29.7965 7.25088 29.8943 7.32207 29.974 7.41384L30.3516 7.086ZM29.8656 6.738L30.066 6.27992C29.8012 6.1641 29.5133 6.112 29.2116 6.112V6.612V7.112C29.3978 7.112 29.5459 7.1439 29.6652 7.19608L29.8656 6.738ZM29.2116 6.612V6.112C28.5963 6.112 28.0526 6.29581 27.64 6.70845L27.9936 7.062L28.3471 7.41555C28.5345 7.22818 28.8029 7.112 29.2116 7.112V6.612ZM27.9936 7.062L27.64 6.70845C27.2478 7.10062 27.0288 7.62404 26.9461 8.23044L27.4416 8.298L27.937 8.36556C27.9983 7.91596 28.1473 7.61538 28.3471 7.41555L27.9936 7.062ZM27.4416 8.298V8.798H30.7656V8.298V7.798H27.4416V8.298ZM31.6296 11.148L31.2439 10.8298C31.1459 10.9485 31.0265 11.0552 30.8824 11.1492L31.1556 11.568L31.4287 11.9868C31.6526 11.8408 31.8492 11.6675 32.0153 11.4662L31.6296 11.148ZM31.1556 11.568L30.8889 11.145C30.7368 11.2409 30.5718 11.3212 30.3928 11.3853L30.5616 11.856L30.7303 12.3267C30.9754 12.2388 31.2063 12.1271 31.4222 11.991L31.1556 11.568ZM30.5616 11.856L30.39 11.3864C30.2126 11.4512 30.0275 11.4993 29.8342 11.5303L29.9136 12.024L29.9929 12.5177C30.2476 12.4767 30.4945 12.4128 30.7332 12.3256L30.5616 11.856ZM29.9136 12.024L29.8257 11.5318C29.6297 11.5668 29.4371 11.584 29.2476 11.584V12.084V12.584C29.498 12.584 29.7494 12.5612 30.0015 12.5162L29.9136 12.024ZM29.2476 12.084V11.584C28.884 11.584 28.5588 11.5236 28.2666 11.4087L28.0836 11.874L27.9006 12.3393C28.3203 12.5044 28.7711 12.584 29.2476 12.584V12.084ZM28.0836 11.874L28.2729 11.4112C27.9851 11.2935 27.738 11.1252 27.527 10.9045L27.1656 11.25L26.8041 11.5955C27.1132 11.9188 27.478 12.1665 27.8942 12.3368L28.0836 11.874ZM27.1656 11.25L27.5321 10.91C27.3283 10.6902 27.1609 10.4111 27.0365 10.0621L26.5656 10.23L26.0946 10.3979C26.2582 10.8569 26.4909 11.2578 26.799 11.59L27.1656 11.25ZM26.5656 10.23L27.0365 10.0621C26.9155 9.72246 26.8496 9.31705 26.8496 8.838H26.3496H25.8496C25.8496 9.40695 25.9277 9.92954 26.0946 10.3979L26.5656 10.23ZM26.3496 8.838H26.8496C26.8496 8.46499 26.9057 8.12498 27.0138 7.81426L26.5416 7.65L26.0693 7.48574C25.9214 7.91102 25.8496 8.36301 25.8496 8.838H26.3496ZM26.5416 7.65L27.0122 7.81882C27.1237 7.50792 27.279 7.24815 27.4753 7.03261L27.1056 6.696L26.7358 6.35939C26.4441 6.67985 26.2234 7.05608 26.0709 7.48118L26.5416 7.65ZM27.1056 6.696L27.4778 7.02988C27.6711 6.81433 27.9088 6.64382 28.1978 6.51903L27.9996 6.06L27.8013 5.60097C27.3863 5.78018 27.028 6.03367 26.7334 6.36212L27.1056 6.696ZM27.9996 6.06L28.2022 6.51712C28.4819 6.39316 28.8074 6.326 29.1876 6.326V5.826V5.326C28.6877 5.326 28.2213 5.41484 27.797 5.60288L27.9996 6.06ZM29.1876 5.826V6.326C29.4938 6.326 29.7657 6.37792 30.0088 6.47582L30.1956 6.012L30.3823 5.54818C30.0095 5.39808 29.6094 5.326 29.1876 5.326V5.826ZM30.1956 6.012L30.0161 6.47867C30.2626 6.57348 30.4684 6.70969 30.6399 6.8873L30.9996 6.54L31.3593 6.1927C31.0827 5.90631 30.7526 5.69052 30.3751 5.54533L30.1956 6.012ZM30.9996 6.54L30.646 6.89355C30.8177 7.06522 30.9595 7.2863 31.0656 7.56816L31.5336 7.392L32.0015 7.21584C31.8516 6.8177 31.6375 6.47078 31.3531 6.18645L30.9996 6.54ZM31.5336 7.392L31.0663 7.57C31.1688 7.83897 31.2256 8.16089 31.2256 8.544H31.7256H32.2256C32.2256 8.06311 32.1543 7.61703 32.0008 7.214L31.5336 7.392ZM31.7256 8.544H31.2256C31.2256 8.57731 31.2247 8.60494 31.2232 8.62742C31.2218 8.65013 31.2199 8.66547 31.2184 8.67466C31.2168 8.68435 31.2164 8.68323 31.2192 8.6745C31.2217 8.66667 31.2303 8.6418 31.251 8.60962L31.6716 8.88L32.0922 9.15038C32.1648 9.03734 32.1924 8.9161 32.2057 8.83334C32.2204 8.74187 32.2256 8.64322 32.2256 8.544H31.7256ZM31.6716 8.88L31.251 8.60962C31.294 8.54264 31.353 8.50134 31.4032 8.48066C31.4471 8.46259 31.4743 8.464 31.4676 8.464V8.964V9.464C31.6467 9.464 31.9239 9.41211 32.0922 9.15038L31.6716 8.88ZM31.4676 8.964V8.464H27.4056V8.964V9.464H31.4676V8.964ZM27.4056 8.964L26.9058 8.97962C26.9189 9.39794 26.9759 9.7806 27.0859 10.1201L27.5616 9.966L28.0372 9.81191C27.9632 9.5834 27.9162 9.29806 27.9053 8.94838L27.4056 8.964ZM27.5616 9.966L27.0879 10.1261C27.2013 10.4616 27.3631 10.76 27.5813 11.0093L27.9576 10.68L28.3339 10.3507C28.216 10.216 28.1138 10.0384 28.0352 9.80589L27.5616 9.966ZM27.9576 10.68L27.5847 11.0132C27.8026 11.257 28.0646 11.4431 28.3664 11.568L28.5576 11.106L28.7487 10.644C28.5865 10.5769 28.4485 10.479 28.3304 10.3468L27.9576 10.68ZM28.5576 11.106L28.3732 11.5708C28.6722 11.6893 28.9961 11.744 29.3376 11.744V11.244V10.744C29.1031 10.744 28.9069 10.7067 28.7419 10.6412L28.5576 11.106ZM29.3376 11.244V11.744C29.6404 11.744 29.9234 11.7104 30.1767 11.6312L30.0276 11.154L29.8784 10.6768C29.7477 10.7176 29.5707 10.744 29.3376 10.744V11.244ZM30.0276 11.154L30.1828 11.6293C30.3968 11.5594 30.5907 11.4819 30.7602 11.3946L30.5316 10.95L30.3029 10.5054C30.1925 10.5621 30.0504 10.6206 29.8724 10.6787L30.0276 11.154ZM30.5316 10.95L30.7602 11.3946C30.9096 11.3178 31.0417 11.2432 31.1527 11.1708L30.8796 10.752L30.6064 10.3332C30.5335 10.3808 30.4336 10.4382 30.3029 10.5054L30.5316 10.95ZM30.8796 10.752L31.1569 11.168C31.1697 11.1595 31.1795 11.1537 31.1863 11.1501C31.1931 11.1464 31.1959 11.1454 31.1948 11.1458C31.1938 11.1462 31.1874 11.1486 31.1763 11.151C31.165 11.1534 31.1477 11.156 31.1256 11.156V10.656V10.156C30.9115 10.156 30.7293 10.2512 30.6022 10.336L30.8796 10.752ZM31.1256 10.656V11.156C31.1042 11.156 31.0646 11.1515 31.019 11.1287C30.9723 11.1054 30.94 11.0732 30.9211 11.0463L31.3296 10.758L31.738 10.4697C31.5902 10.2602 31.365 10.156 31.1256 10.156V10.656ZM31.3296 10.758L30.9333 11.0629L31.2333 11.4529L31.6296 11.148L32.0259 10.8431L31.7259 10.4531L31.3296 10.758Z" fill="black"/>
</svg>
