<svg width="48" height="48" viewBox="0 0 48 48" fill="none" xmlns="http://www.w3.org/2000/svg">
<path d="M18.5004 44L17.7004 37.6C17.2671 37.4333 16.8587 37.2333 16.4754 37C16.0921 36.7667 15.7171 36.5167 15.3504 36.25L9.40039 38.75L3.90039 29.25L9.05039 25.35C9.01706 25.1167 9.00039 24.8917 9.00039 24.675V23.325C9.00039 23.1083 9.01706 22.8833 9.05039 22.65L3.90039 18.75L9.40039 9.25L15.3504 11.75C15.7171 11.4833 16.1004 11.2333 16.5004 11C16.9004 10.7667 17.3004 10.5667 17.7004 10.4L18.5004 4H29.5004L30.3004 10.4C30.7337 10.5667 31.1421 10.7667 31.5254 11C31.9087 11.2333 32.2837 11.4833 32.6504 11.75L38.6004 9.25L44.1004 18.75L38.9504 22.65C38.9837 22.8833 39.0004 23.1083 39.0004 23.325V24.675C39.0004 24.8917 38.9671 25.1167 38.9004 25.35L44.0504 29.25L38.5504 38.75L32.6504 36.25C32.2837 36.5167 31.9004 36.7667 31.5004 37C31.1004 37.2333 30.7004 37.4333 30.3004 37.6L29.5004 44H18.5004ZM22.0004 40H25.9504L26.6504 34.7C27.6837 34.4333 28.6421 34.0417 29.5254 33.525C30.4087 33.0083 31.2171 32.3833 31.9504 31.65L36.9004 33.7L38.8504 30.3L34.5504 27.05C34.7171 26.5833 34.8337 26.0917 34.9004 25.575C34.9671 25.0583 35.0004 24.5333 35.0004 24C35.0004 23.4667 34.9671 22.9417 34.9004 22.425C34.8337 21.9083 34.7171 21.4167 34.5504 20.95L38.8504 17.7L36.9004 14.3L31.9504 16.4C31.2171 15.6333 30.4087 14.9917 29.5254 14.475C28.6421 13.9583 27.6837 13.5667 26.6504 13.3L26.0004 8H22.0504L21.3504 13.3C20.3171 13.5667 19.3587 13.9583 18.4754 14.475C17.5921 14.9917 16.7837 15.6167 16.0504 16.35L11.1004 14.3L9.15039 17.7L13.4504 20.9C13.2837 21.4 13.1671 21.9 13.1004 22.4C13.0337 22.9 13.0004 23.4333 13.0004 24C13.0004 24.5333 13.0337 25.05 13.1004 25.55C13.1671 26.05 13.2837 26.55 13.4504 27.05L9.15039 30.3L11.1004 33.7L16.0504 31.6C16.7837 32.3667 17.5921 33.0083 18.4754 33.525C19.3587 34.0417 20.3171 34.4333 21.3504 34.7L22.0004 40ZM24.1004 31C26.0337 31 27.6837 30.3167 29.0504 28.95C30.4171 27.5833 31.1004 25.9333 31.1004 24C31.1004 22.0667 30.4171 20.4167 29.0504 19.05C27.6837 17.6833 26.0337 17 24.1004 17C22.1337 17 20.4754 17.6833 19.1254 19.05C17.7754 20.4167 17.1004 22.0667 17.1004 24C17.1004 25.9333 17.7754 27.5833 19.1254 28.95C20.4754 30.3167 22.1337 31 24.1004 31Z" fill="#1D1B20"/>
</svg>
